<svg width="428" height="529" viewBox="0 0 428 529" fill="none" xmlns="http://www.w3.org/2000/svg">
<rect width="428" height="428" rx="10" fill="#02A1E3"/>
<path d="M90.0882 225.492C91.3032 224.862 92.4787 224.332 93.6067 223.879V178.362C93.6067 177.883 93.9941 177.495 94.4738 177.495H99.6712C100.151 177.495 100.538 177.883 100.538 178.362V194.777H112.222V187.792C110.071 187.774 108.329 186.019 108.329 183.865V183.628C108.329 181.462 110.09 179.701 112.253 179.701H127.297C129.461 179.701 131.224 181.462 131.224 183.628V183.865C131.224 186.019 129.48 187.774 127.329 187.792V194.777H141.704V193.251C138.019 192.02 135.555 189.031 135.555 185.716C135.555 181.485 139.471 177.999 144.452 177.614C142.291 174.649 141.545 171.225 142.412 167.983C143.68 163.255 148.277 159.9 153.925 159.386C150.34 155.195 148.965 150.043 150.238 145.283C151.387 140.99 154.51 137.508 159.03 135.481C161.984 134.158 165.313 133.578 168.724 133.731C164.188 130.608 161.307 127.245 159.473 123.028C150.852 103.211 166.423 78.8847 176.47 66.1469C192.228 46.1745 211.172 45.5867 218.581 46.2562C231.938 47.4712 237.681 56.361 239.036 58.849C241.932 58.3562 245.314 59.4077 249.109 61.9906C260.284 69.589 274.231 90.8187 276.374 109.131C277.995 122.983 270.457 131.952 263.997 136.981C273.928 135.286 283.292 140.025 285.483 148.216C286.758 152.976 285.382 158.129 281.795 162.319C287.446 162.836 292.043 166.189 293.308 170.917C294.175 174.159 293.434 177.582 291.27 180.55C296.254 180.932 300.168 184.419 300.168 188.652C300.168 193.137 295.767 196.785 290.361 196.785C284.953 196.785 280.554 193.137 280.554 188.652C280.554 188.093 280.62 187.545 280.757 187.004C279.972 187.157 279.181 187.236 278.396 187.281C288.042 213.128 291.898 251.257 288.076 261.955C287.04 264.849 283.179 268.093 277.692 271.425C278.54 276.129 307.39 424.318 307.682 425.828C307.761 426.231 307.548 426.632 307.168 426.79C307.042 426.845 301.462 429.149 291.044 431.708L301.744 484.19C301.773 484.254 301.81 484.314 301.823 484.385L305.373 503.254C305.418 503.333 305.46 503.414 305.481 503.509C305.5 503.612 305.495 503.715 305.479 503.812L308.536 520.056C308.618 520.477 308.373 520.896 307.967 521.033C307.851 521.075 296.325 524.976 281.429 526.763C275.001 527.535 266.427 528.334 258.518 528.334C249.093 528.334 240.612 527.198 237.829 523.527C236.619 521.932 236.471 520.003 237.391 517.786C242.161 506.29 268.589 498.607 273.926 497.16C273.348 495.434 271.93 491.301 270.004 486.433L255.31 486.852C255.303 486.852 255.295 486.852 255.287 486.852C254.915 486.852 254.583 486.618 254.464 486.262C254.338 485.89 242.027 449.293 238.625 438.474C235.567 438.568 232.423 438.621 229.184 438.621C227.892 438.621 226.583 438.613 225.262 438.597C224.801 438.592 224.424 438.226 224.408 437.765L223.749 419.721L208.679 420.299C209.37 442.604 210.276 466.529 211.133 486.602C211.135 486.649 211.114 486.694 211.109 486.742C211.125 486.797 211.151 486.85 211.154 486.91L212.161 517.096C212.174 517.478 211.934 517.823 211.573 517.944C211.46 517.987 199.932 521.887 185.035 523.674C178.61 524.446 170.036 525.245 162.127 525.245C152.702 525.245 144.218 524.109 141.435 520.438C140.225 518.843 140.077 516.914 140.997 514.697C145.815 503.09 172.703 495.371 177.679 494.032C177.505 492.756 177.12 489.968 176.649 486.486L167.174 486.201C166.755 486.186 166.402 485.875 166.344 485.458C166.307 485.192 162.538 458.749 160.59 433.706C152.873 431.877 145.293 429.592 144.766 429.431C144.384 429.318 144.134 428.956 144.152 428.559C145.356 405.305 151.893 337.038 157.18 283.725C156.935 283.364 156.697 282.998 156.492 282.621C156.426 282.502 156.4 282.376 156.392 282.247C154.652 280.889 153.398 279.419 152.986 277.858C152.965 277.774 152.968 277.687 152.973 277.603C150.836 276.137 149.861 274.812 149.449 274.068H99.4656C96.2344 274.068 93.6067 271.441 93.6067 268.209V266.612C93.3273 266.652 93.019 266.681 92.6816 266.681C91.9647 266.681 91.1398 266.56 90.3096 266.188C88.7071 265.471 87.5106 264.032 86.7462 261.905C85.1227 257.375 83.0512 247.918 83.5546 242.668C83.7469 240.673 84.448 238.862 85.4469 237.247C84.1976 237.146 83.1698 236.469 82.7138 235.301C81.8151 233.003 83.2093 229.058 90.0882 225.492ZM161.911 236.622C160.793 238.514 159.146 240.865 156.811 243.432V251.141C156.811 255.306 153.421 258.692 149.257 258.692C146.371 258.692 143.891 257.05 142.618 254.67C134.948 259.164 125.742 262.719 115.213 265.231C114.807 265.526 114.341 265.729 113.782 265.785C113.64 265.8 113.497 265.806 113.363 265.806C110.553 265.806 109.141 262.904 108.614 261.481C105.751 262.59 102.834 263.671 100.538 264.393V267.139H158.832C160.2 253.447 161.304 242.581 161.911 236.622ZM127.329 212.367C131.778 208.772 135.215 205.685 137.531 203.197C137.784 202.926 138.019 202.652 138.267 202.378H127.329V212.367ZM100.538 222.126C104.866 221.744 108.213 222.883 112.222 224.59V202.378H100.538V222.126Z" fill="#024598"/>
<path d="M209.042 158.193C220.82 158.641 225.634 151.417 225.831 151.109C225.86 151.065 225.902 151.038 225.937 151.001C226.311 149.991 226.701 149.078 227.102 148.242C225.196 147.184 223.656 145.062 223.767 142.173C221.118 142.812 218.371 143.16 215.569 143.16C214.728 143.16 213.882 143.131 213.033 143.07L210.289 142.873C208.752 142.765 207.26 142.523 205.789 142.223C205.792 142.352 205.784 142.494 205.789 142.618C205.839 143.854 205.895 145.259 203.649 146.9C202.924 147.429 201.735 147.787 199.932 148.331C199.898 148.342 199.858 148.355 199.824 148.363C199.819 148.495 199.782 148.621 199.716 148.739C199.576 150.028 199.523 152.811 201.205 154.989C202.734 156.973 205.373 158.051 209.042 158.193ZM244.062 125.054C244.302 124.643 244.829 124.504 245.248 124.743C245.288 124.767 245.314 124.806 245.351 124.835C245.475 124.822 245.599 124.83 245.72 124.872C250.6 126.587 255.308 124.17 258.089 121.342C261.115 118.259 262.335 114.321 261.199 111.306C260.503 109.46 259.362 108.184 257.809 107.508C254.462 106.053 250.199 107.768 250.154 107.787C250.088 107.813 250.02 107.815 249.951 107.826C249.851 107.863 249.746 107.884 249.643 107.884C249.395 107.884 249.152 107.781 248.981 107.579C248.317 106.8 233.919 89.6935 232.263 75.6647C230.792 78.8845 228.958 84.051 230.51 87.2471C230.642 87.5181 230.624 87.839 230.46 88.0915C230.297 88.344 230.075 88.4677 229.712 88.4887C228.438 88.4624 198.403 87.7837 191.114 83.488C185.521 80.1919 184.603 75.3149 185.03 71.3401C182.956 75.3149 181.696 79.679 181.371 84.2114L179.819 105.95C178.524 124.067 192.25 139.856 210.416 141.147L213.16 141.345C225.823 142.231 237.665 136.002 244.062 125.054ZM195.87 105.787C196.038 101.439 198.023 97.9851 200.298 98.0745C202.576 98.1613 204.284 101.76 204.115 106.106C203.944 110.454 201.962 113.908 199.687 113.821C197.409 113.732 195.701 110.136 195.87 105.787ZM205.639 90.9904C205.599 91.4665 205.193 91.8269 204.703 91.7822C197.061 91.1482 192.901 94.0813 192.857 94.1102C192.704 94.2234 192.525 94.276 192.348 94.276C192.079 94.276 191.818 94.1523 191.647 93.9208C191.367 93.5368 191.449 92.9975 191.834 92.716C192.018 92.5793 196.497 89.3805 204.846 90.0565C205.323 90.0986 205.679 90.5143 205.639 90.9904ZM210.474 112.577C209.182 113.084 208.415 113.666 208.191 114.308C207.975 114.936 208.206 115.815 208.9 117.001C209.14 117.414 209.003 117.943 208.589 118.183C208.452 118.264 208.301 118.301 208.151 118.301C207.853 118.301 207.563 118.148 207.402 117.872C206.788 116.823 206.029 115.249 206.554 113.742C206.957 112.585 208.03 111.677 209.841 110.97C210.286 110.799 210.787 111.014 210.964 111.459C211.138 111.901 210.919 112.403 210.474 112.577ZM233.679 97.0723C233.642 97.0381 229.883 93.6262 222.207 93.3106C221.729 93.2921 221.358 92.8897 221.376 92.4135C221.397 91.9348 221.83 91.5349 222.278 91.5849C230.65 91.9269 234.699 95.6544 234.865 95.8122C235.213 96.141 235.229 96.6856 234.902 97.0302C234.731 97.2117 234.501 97.3037 234.272 97.3037C234.058 97.3037 233.845 97.2275 233.679 97.0723ZM221.853 106.795C222.022 102.446 224.007 98.9926 226.282 99.0794C228.557 99.1688 230.268 102.765 230.096 107.113C229.928 111.461 227.945 114.915 225.67 114.826C223.393 114.739 221.685 111.143 221.853 106.795ZM211.483 129.223C211.256 129.223 211.027 129.218 210.8 129.205C205.721 128.963 201.089 126.053 198.714 121.61C198.487 121.189 198.648 120.666 199.07 120.44C199.497 120.219 200.019 120.376 200.243 120.797C202.333 124.706 206.411 127.266 210.882 127.479C215.353 127.689 219.658 125.527 222.109 121.836C222.375 121.439 222.913 121.329 223.311 121.594C223.709 121.857 223.82 122.394 223.556 122.791C220.891 126.8 216.315 129.223 211.483 129.223ZM179.737 119.064C176.529 119.529 173.128 117.88 170.537 114.542C167.659 110.83 166.757 106.284 168.296 103.23C169.209 101.413 170.437 100.3 171.942 99.9264C174.879 99.1978 178.058 101.41 178.089 101.431C178.182 101.497 178.285 101.539 178.39 101.565L178.084 105.829C177.757 110.446 178.372 114.915 179.737 119.064ZM173.885 274.149C174.33 274.154 174.728 273.849 174.789 273.407C174.852 272.962 174.565 272.544 174.125 272.441C169.654 271.413 162.152 268.951 161.05 266.728C160.915 266.459 160.905 266.239 161.016 265.997C162.5 262.745 179.26 265.27 190.692 268.104C190.888 268.154 191.101 268.127 191.283 268.04L194.844 266.291C198.698 269.098 206.332 279.746 209.208 288.067C209.158 288.075 209.105 288.07 209.055 288.088C208.866 288.154 189.751 294.593 179.924 293.257C173.139 292.328 164.767 289.211 160.172 284.337C166.354 287.601 174.908 289.785 179.421 290.092C179.442 290.095 179.46 290.095 179.481 290.095C179.932 290.095 180.312 289.748 180.346 289.29C180.378 288.811 180.016 288.401 179.539 288.367C172.886 287.917 159.431 283.687 155.641 278.844C157.077 279.565 158.812 280.28 160.95 280.943C168.08 283.158 175.192 283.469 178.603 283.469C179.819 283.469 180.565 283.427 180.67 283.421C181.15 283.395 181.514 282.987 181.487 282.509C181.461 282.035 181.087 281.675 180.573 281.696C180.475 281.698 170.827 282.201 161.464 279.294C155.303 277.379 152.649 275.085 151.557 273.759C163.272 273.596 173.777 274.143 173.885 274.149ZM97.2255 230.31C99.1709 229.745 100.21 229.934 100.41 230.189C102.052 232.283 98.1481 236.963 96.5322 238.565C90.493 241.548 88.7664 243.91 88.6952 244.01C88.4184 244.4 88.5107 244.939 88.9008 245.215C89.0537 245.323 89.2277 245.376 89.4017 245.376C89.6732 245.376 89.9394 245.249 90.1082 245.01C90.1213 244.994 91.7451 242.848 97.3731 240.08C97.6842 239.991 99.5374 239.488 101.396 239.488C102.991 239.488 104.572 239.862 105.157 241.19C105.975 243.042 103.281 245.07 102.74 245.454C96.5665 247.07 92.4911 248.614 89.146 250.6C88.7348 250.844 88.6003 251.376 88.8455 251.786C89.0089 252.057 89.2962 252.207 89.5889 252.207C89.7417 252.207 89.8946 252.17 90.0343 252.086C93.2161 250.195 97.1385 248.711 103.093 247.149C103.629 247.333 105.173 248.006 105.363 249.745C105.545 251.442 103.333 253.133 102.337 253.728C97.0832 254.614 90.6512 257.752 90.377 257.886C89.9473 258.097 89.7707 258.615 89.9843 259.044C90.1345 259.349 90.4403 259.525 90.7593 259.525C90.8884 259.525 91.0176 259.499 91.1415 259.439C91.2074 259.404 97.41 256.382 102.374 255.48C102.819 255.964 103.665 257.147 103.441 258.994C103.149 261.401 97.7343 263.584 94.3918 264.392C94.3786 264.394 94.339 264.41 94.2995 264.423C94.2389 264.439 94.1782 264.45 94.1229 264.479C93.5772 264.639 92.2934 264.915 91.0255 264.339C89.8788 263.821 88.9957 262.719 88.4026 261.067C86.7973 256.6 84.8413 247.419 85.3052 242.616C85.9115 236.345 92.6414 231.644 97.2255 230.31ZM90.9122 226.841C91.8506 226.354 92.7521 225.944 93.6352 225.57V229.9C91.268 231.084 88.7189 232.886 86.7709 235.227C86.6786 235.222 86.5864 235.219 86.4915 235.245C85.474 235.524 84.6489 235.227 84.3536 234.467C83.8 233.051 85.0891 229.853 90.9122 226.841ZM107.084 249.837C107.277 249.382 108.368 247.13 112.254 243.282V250.871C112.254 253.275 113.408 255.395 115.172 256.776L114.444 257.068C111.632 258.197 107.862 259.707 104.446 260.964C104.82 260.42 105.086 259.833 105.163 259.199C105.421 257.082 104.638 255.569 103.982 254.709C105.192 253.83 107.15 252.041 107.084 249.837ZM106.365 247.575C105.909 246.883 105.326 246.372 104.778 246.041C106.056 244.889 107.765 242.803 106.747 240.493C105.5 237.665 101.981 237.555 99.482 237.881C101.393 235.535 103.8 231.704 101.773 229.124C101.499 228.771 101.066 228.561 100.568 228.411V223.679C104.802 223.274 108.086 224.489 112.196 226.254C112.214 226.262 112.235 226.259 112.254 226.267V240.875C109.03 243.892 107.285 246.146 106.365 247.575Z" fill="#F4D1C5"/>
<path d="M217.877 183.819V183.582C217.877 182.374 216.894 181.392 215.688 181.392H200.686C199.479 181.392 198.496 182.374 198.496 183.582V183.819C198.496 185.028 199.479 186.012 200.686 186.012H201.517C201.995 186.012 202.382 186.399 202.382 186.876V194.682H213.995V186.876C213.995 186.399 214.381 186.012 214.857 186.012H215.688C216.894 186.012 217.877 185.028 217.877 183.819ZM184.588 194.684H172.978V186.842C172.978 186.363 172.591 185.976 172.113 185.976H171.282C170.076 185.976 169.092 184.994 169.092 183.785V183.548C169.092 182.34 170.076 181.358 171.282 181.358H186.284C187.49 181.358 188.471 182.34 188.471 183.548V183.785C188.471 184.994 187.49 185.976 186.284 185.976H185.453C184.975 185.976 184.588 186.363 184.588 186.842V194.684ZM186.318 194.226V187.708C186.649 187.705 186.967 187.647 187.275 187.566C186.949 189.727 186.628 191.946 186.318 194.226ZM229.094 177.525C229.057 177.543 229.036 177.575 229.004 177.598C228.954 177.635 228.905 177.669 228.865 177.714C228.828 177.756 228.802 177.804 228.773 177.851C228.747 177.898 228.715 177.943 228.697 177.996C228.676 178.054 228.671 178.114 228.663 178.175C228.657 178.212 228.639 178.249 228.639 178.288V194.684H221.003C222.346 171.909 224.909 156.51 228.626 148.852C228.902 148.918 229.23 148.991 229.643 149.081C231.404 149.468 234.262 150.1 237.739 151.195C238.481 160.317 239.08 170.472 238.749 171.601C238.289 172.278 233.368 175.226 229.094 177.525ZM213.995 202.277H202.382V250.987C202.382 254.194 204.987 256.8 208.188 256.8C211.39 256.8 213.995 254.194 213.995 250.987V202.277ZM212.265 250.577C212.265 252.828 210.436 254.657 208.188 254.657C205.938 254.657 204.109 252.828 204.109 250.577V207.922C204.109 207.443 204.495 207.056 204.973 207.056H211.4C211.879 207.056 212.265 207.443 212.265 207.922V250.577ZM179.228 179.625H171.282C169.124 179.625 167.365 181.384 167.365 183.546V183.785C167.365 185.936 169.106 187.689 171.251 187.705V194.682H156.951V187.742C159.096 187.724 160.833 185.97 160.833 183.819V183.582C160.833 181.529 159.246 179.857 157.235 179.694C161.698 173.902 166.393 168.9 171.942 164.119C176.106 160.528 179.92 157.79 183.355 155.668C180.461 160.046 175.409 167.705 174.705 168.879C173.756 170.464 176.468 175.368 179.228 179.625ZM186.286 179.625H181.297C178.624 175.584 175.977 170.703 176.213 169.713C177.099 168.247 185.839 155.047 186.725 153.712C191.01 151.379 194.58 150.034 197.356 149.128C194.062 154.391 191.136 164.632 188.447 180.281C187.827 179.868 187.085 179.625 186.286 179.625ZM247.881 239.525C245.163 224.3 241.104 201.195 241.062 199.931C241.044 199.46 240.612 199.128 240.181 199.086C239.711 199.094 239.332 199.468 239.332 199.939C239.332 201.377 244.979 233.103 246.064 239.188L235.552 244.371V178.285C235.552 177.806 235.166 177.419 234.688 177.419H232.863C235.999 175.65 239.808 173.341 240.321 172.317C240.949 171.056 240.131 159.377 239.522 151.782C241.625 152.501 243.901 153.388 246.285 154.481C246.43 154.665 246.64 154.791 246.892 154.812C246.921 154.812 246.945 154.802 246.974 154.802C253.39 157.829 260.446 162.355 266.557 169.247C282.771 187.524 290.993 247.883 286.238 261.205C284.908 264.935 276.867 271.915 246.114 283.975C231.578 289.675 217.265 294.395 211.663 296.199C211.96 295.29 212.076 294.227 212 293.003C211.471 284.523 201.801 270.056 196.551 265.536L247.413 240.451C247.757 240.283 247.949 239.904 247.881 239.525ZM228.639 247.783L226.323 248.923L228.639 236.26V247.783ZM228.639 226.743C228.631 226.769 228.615 226.79 228.61 226.819L224.391 249.879L219.957 252.064C219.875 247.033 219.604 225.19 220.614 202.277H228.639V226.743ZM209.665 289.78C209.994 290.97 210.212 292.094 210.275 293.113C210.386 294.898 210.01 296.186 209.198 296.986C209.195 296.986 209.192 296.986 209.192 296.986C208.998 297.046 208.853 297.175 208.748 297.331C207.034 298.071 203.139 295.322 200.244 292.576C205.333 291.27 209.213 289.959 209.563 289.838C209.602 289.825 209.629 289.799 209.665 289.78ZM177.933 294.796C174.505 360.431 173.706 425.588 173.614 433.881C166.246 433.502 149.577 428.658 146.084 427.623C147.359 404.066 153.673 337.922 158.862 285.465C163.344 290.317 171.159 293.542 177.933 294.796ZM120.01 258.496C124.166 258.496 127.544 255.113 127.544 250.953V214.477C132.581 210.454 136.432 207.021 138.984 204.275C139.602 203.612 140.193 202.946 140.769 202.277H141.881V250.987C141.881 251.648 141.991 252.277 142.151 252.888C135.073 257.077 126.611 260.434 116.974 262.892C117.587 261.276 117.729 259.315 117.75 258.109C118.467 258.338 119.217 258.496 120.01 258.496ZM178.784 256.766C181.983 256.766 184.588 254.157 184.588 250.953V202.277H172.978V250.953C172.978 254.157 175.583 256.766 178.784 256.766ZM178.784 254.623C176.534 254.623 174.707 252.791 174.707 250.54V207.885C174.707 207.406 175.094 207.019 175.569 207.019H181.996C182.475 207.019 182.861 207.406 182.861 207.885V250.54C182.861 252.791 181.032 254.623 178.784 254.623ZM220.898 294.982C235.526 290.043 260.929 280.887 275.976 272.16C276.125 273.244 276.472 275.04 277.053 278.052L280.436 295.546C283.239 310.02 286.984 329.321 290.73 348.621C297.63 384.165 304.541 419.709 305.59 425.109C303.831 425.785 298.511 427.713 289.991 429.795C289.873 429.766 289.752 429.758 289.626 429.785C289.482 429.814 289.363 429.885 289.255 429.974C275.626 433.247 254.147 436.827 226.063 436.519L225.411 418.643C225.424 418.58 225.445 418.517 225.443 418.451C225.44 418.388 225.414 418.338 225.398 418.28L220.898 294.982ZM208.383 347.571C212.27 349.277 219.223 376.464 222.69 393.198C222.701 393.258 222.735 393.306 222.759 393.359L223.645 417.653L208.627 418.23C207.528 382.193 207.018 350.809 208.233 347.531C208.272 347.531 208.317 347.542 208.383 347.571ZM139.725 183.819V183.582C139.725 182.374 140.706 181.392 141.912 181.392H156.917C158.123 181.392 159.104 182.374 159.104 183.582V183.819C159.104 185.028 158.123 186.012 156.917 186.012H156.086C155.607 186.012 155.221 186.399 155.221 186.876V194.682H143.608V186.876C143.608 186.399 143.221 186.012 142.743 186.012H141.912C140.706 186.012 139.725 185.028 139.725 183.819ZM155.221 202.277H143.608V250.987C143.608 254.194 146.213 256.8 149.414 256.8C152.616 256.8 155.221 254.194 155.221 250.987V202.277ZM153.491 250.577C153.491 252.828 151.662 254.657 149.414 254.657C147.164 254.657 145.337 252.828 145.337 250.577V207.922C145.337 207.443 145.724 207.056 146.202 207.056H152.629C153.105 207.056 153.491 207.443 153.491 207.922V250.577ZM116.007 258.48C115.91 260.731 115.368 263.743 113.862 263.893C111.946 264.082 110.884 261.787 110.487 260.686C112.224 260.002 113.891 259.33 115.305 258.762L116.007 258.48ZM125.817 250.953V202.277H114.204V250.953C114.204 254.157 116.809 256.766 120.01 256.766C123.212 256.766 125.817 254.157 125.817 250.953ZM124.09 250.54C124.09 252.791 122.261 254.623 120.01 254.623C117.76 254.623 115.933 252.791 115.933 250.54V207.885C115.933 207.406 116.32 207.019 116.798 207.019H123.225C123.704 207.019 124.09 207.406 124.09 207.885V250.54ZM163.572 230.684C163.125 230.594 162.7 230.863 162.576 231.295C162.566 231.337 161.354 235.357 156.951 240.654V202.277H171.251V250.953C171.251 253.425 172.46 255.603 174.3 256.977L175.222 263.44C169.445 262.684 163.748 262.482 161.001 263.946C162.941 244.566 164.266 231.621 164.266 231.621C164.311 231.176 164.011 230.771 163.572 230.684ZM112.508 181.355H127.513C128.719 181.355 129.7 182.337 129.7 183.546V183.785C129.7 184.994 128.719 185.976 127.513 185.976H126.679C126.204 185.976 125.817 186.363 125.817 186.842V194.682H114.204V186.842C114.204 186.363 113.817 185.976 113.342 185.976H112.508C111.302 185.976 110.321 184.994 110.321 183.785V183.546C110.321 182.337 111.302 181.355 112.508 181.355ZM176.952 263.329L176.192 258.006C177.005 258.309 177.869 258.496 178.784 258.496C179.244 258.496 179.691 258.438 180.13 258.359C179.996 260.276 179.867 262.197 179.738 264.127C178.816 263.969 177.877 263.817 176.931 263.677C176.96 263.566 176.968 263.448 176.952 263.329Z" fill="white"/>
<path d="M233.684 179.408H230.223V247.243L233.684 245.535V179.408ZM157.611 503.282C157.679 503.29 157.74 503.308 157.816 503.3C158.119 503.282 165.67 502.989 168.96 510.13C169.108 510.446 169.421 510.631 169.747 510.631C169.868 510.631 169.991 510.607 170.11 510.551C170.541 510.351 170.73 509.837 170.533 509.403C168.14 504.215 163.7 502.452 160.728 501.859C161.78 501.403 162.832 500.966 163.868 500.552C163.889 500.555 163.905 500.563 163.924 500.563C163.939 500.563 163.966 500.56 164.018 500.563C164.87 500.563 171.88 500.776 175.041 507.635C175.186 507.951 175.499 508.138 175.825 508.138C175.946 508.138 176.07 508.112 176.188 508.056C176.622 507.856 176.811 507.342 176.612 506.907C174.286 501.864 170.168 499.975 167.245 499.266C168.058 498.969 168.85 498.687 169.615 498.423C170.949 498.418 178.292 498.774 181.349 505.408C181.496 505.724 181.809 505.909 182.135 505.909C182.256 505.909 182.38 505.885 182.498 505.83C182.929 505.63 183.119 505.116 182.919 504.681C180.686 499.833 176.512 497.933 173.374 497.182C176.159 496.305 178.134 495.773 178.637 495.641C179.144 495.667 182.629 495.936 185.659 498.523C188.069 500.576 188.747 504.452 188.755 504.491C188.795 504.718 188.921 504.921 189.108 505.053C189.255 505.155 189.431 505.213 189.607 505.213C189.657 505.213 189.705 505.208 189.755 505.2L209.752 501.77L210.246 516.596C207.706 517.41 197.472 520.511 184.723 522.045C161.425 524.846 146.146 523.908 142.795 519.484C141.975 518.398 141.904 517.081 142.577 515.452C144.55 510.691 150.825 506.541 157.611 503.282ZM178.61 253.208C177.314 253.208 176.259 252.154 176.259 250.855V209.029H180.962V250.855C180.962 252.154 179.907 253.208 178.61 253.208ZM119.802 253.208C118.505 253.208 117.453 252.154 117.453 250.855V209.029H122.154V250.855C122.154 252.154 121.099 253.208 119.802 253.208ZM98.8738 268.163C98.8738 268.64 99.2604 269.028 99.7391 269.028H160.165C160.194 269.028 160.22 269.014 160.249 269.012C161.69 270.427 164.336 271.652 166.922 272.59C162.461 272.463 156.317 272.361 149.939 272.487C149.931 272.487 149.926 272.492 149.92 272.492H99.5339C97.2641 272.492 95.4151 270.643 95.4151 268.369V266.34C96.1042 266.158 97.414 265.776 98.8738 265.183V268.163ZM98.8738 179.408V228.63C98.2425 228.68 97.5613 228.785 96.7854 229.012C96.354 229.138 95.8911 229.304 95.4151 229.489V179.408H98.8738ZM253.892 506.33C253.934 506.333 253.973 506.349 254.018 506.344C254.339 506.338 261.866 506.075 265.157 513.218C265.304 513.534 265.617 513.719 265.943 513.719C266.064 513.719 266.188 513.695 266.304 513.64C266.738 513.439 266.927 512.925 266.727 512.491C264.347 507.329 259.949 505.537 256.982 504.923C258.234 504.378 259.481 503.869 260.706 503.39C260.741 503.395 260.772 503.411 260.806 503.411C261.098 503.416 267.932 503.559 271.235 510.723C271.38 511.039 271.693 511.223 272.022 511.223C272.143 511.223 272.264 511.2 272.382 511.144C272.816 510.944 273.005 510.43 272.805 509.996C270.48 504.952 266.603 502.974 263.886 502.191C264.544 501.954 265.188 501.725 265.812 501.511C267.148 501.501 274.486 501.862 277.545 508.496C277.69 508.81 278.003 508.997 278.331 508.997C278.452 508.997 278.573 508.973 278.692 508.918C279.126 508.718 279.315 508.201 279.115 507.769C276.88 502.918 272.692 501.021 269.554 500.276C272.348 499.393 274.328 498.861 274.831 498.729C275.341 498.755 278.823 499.024 281.853 501.609C284.265 503.664 284.944 507.54 284.949 507.579C284.988 507.809 285.12 508.014 285.312 508.146C285.457 508.249 285.628 508.301 285.804 508.301C285.859 508.301 285.914 508.296 285.969 508.283L303.531 504.8L306.335 519.716C303.628 520.577 293.497 523.62 280.914 525.13C257.619 527.931 242.34 526.996 238.989 522.569C238.168 521.486 238.097 520.169 238.773 518.54C240.754 513.758 247.074 509.595 253.892 506.33ZM100.952 196.685H228.476V200.819H100.949V196.685H100.952Z" fill="#F4B47E"/>
<path d="M210.39 251.006V209.221H205.687V251.006C205.687 252.301 206.742 253.356 208.04 253.356C209.337 253.356 210.39 252.301 210.39 251.006ZM299.628 483.829L255.689 485.085C254.089 480.318 243.554 448.962 240.227 438.449C261.253 437.673 277.77 434.84 289.098 432.161L299.628 483.829ZM151.547 209.221V251.006C151.547 252.301 150.492 253.356 149.194 253.356C147.897 253.356 146.841 252.301 146.841 251.006V209.221H151.547ZM175.147 435.177C175.152 434.482 175.821 365.291 179.463 295.496C179.487 295.501 179.513 295.507 179.537 295.509C180.547 295.649 181.642 295.709 182.795 295.709C187.509 295.709 193.196 294.664 198.107 293.488C199.747 295.141 204.492 299.605 207.977 299.605C208.713 299.605 209.39 299.402 209.974 298.931C211.177 298.552 214.467 297.512 219.054 295.98L222.286 384.374C221.391 380.51 220.251 375.791 218.988 371.034C213.538 350.516 210.637 347.149 208.929 346.399C208.287 346.12 207.642 346.154 207.066 346.501C206.142 347.054 204.595 347.983 206.726 417.691C206.742 418.165 206.755 418.641 206.771 419.115C206.695 419.252 206.64 419.402 206.645 419.571C206.653 419.734 206.716 419.876 206.798 420.002C207.742 450.292 208.977 480.139 209.211 485.727L177.86 484.777L176.737 484.743L167.867 484.474C167.257 480.105 164.048 456.643 162.275 434.161C166.936 435.217 171.449 436.033 174.278 436.033C174.755 436.033 175.142 435.651 175.147 435.177Z" fill="#ADE1DA"/>
</svg>
