<svg width="261" height="323" viewBox="0 0 261 323" fill="none" xmlns="http://www.w3.org/2000/svg">
<rect width="261" height="261" rx="10" fill="#02A1E3"/>
<path d="M54.9372 137.508C55.6781 137.124 56.395 136.801 57.0828 136.524V108.768C57.0828 108.475 57.3191 108.239 57.6116 108.239H60.781C61.0736 108.239 61.3098 108.475 61.3098 108.768V118.777H68.4346V114.518C67.1231 114.507 66.0607 113.437 66.0607 112.123V111.979C66.0607 110.658 67.1344 109.584 68.4539 109.584H77.6279C78.9474 109.584 80.0226 110.658 80.0226 111.979V112.123C80.0226 113.437 78.9586 114.507 77.6472 114.518V118.777H86.4129V117.847C84.166 117.096 82.6633 115.274 82.6633 113.252C82.6633 110.672 85.0516 108.546 88.0892 108.311C86.7713 106.503 86.3165 104.415 86.8453 102.438C87.6183 99.555 90.4213 97.5091 93.8656 97.1956C91.6798 94.6402 90.8408 91.4981 91.6171 88.5954C92.3178 85.9773 94.2224 83.8542 96.9788 82.6182C98.7804 81.8114 100.81 81.4578 102.89 81.551C100.124 79.6465 98.3674 77.5957 97.2488 75.0241C91.9916 62.9395 101.487 48.1049 107.614 40.3372C117.223 28.1577 128.776 27.7993 133.294 28.2075C141.439 28.9485 144.941 34.3696 145.767 35.8868C147.534 35.5863 149.596 36.2276 151.91 37.8026C158.725 42.4362 167.23 55.3823 168.537 66.5493C169.525 74.9968 164.929 80.4661 160.989 83.5327C167.045 82.4993 172.756 85.389 174.091 90.3843C174.869 93.2869 174.03 96.429 171.843 98.9845C175.289 99.2995 178.092 101.344 178.863 104.227C179.392 106.204 178.94 108.292 177.621 110.102C180.66 110.335 183.047 112.461 183.047 115.042C183.047 117.778 180.363 120.002 177.066 120.002C173.768 120.002 171.086 117.778 171.086 115.042C171.086 114.701 171.126 114.367 171.21 114.038C170.731 114.131 170.248 114.179 169.77 114.206C175.652 129.968 178.003 153.22 175.673 159.744C175.041 161.508 172.687 163.487 169.34 165.518C169.858 168.387 187.45 258.755 187.629 259.675C187.677 259.921 187.547 260.166 187.315 260.262C187.238 260.296 183.836 261.701 177.483 263.261L184.008 295.266C184.026 295.304 184.048 295.341 184.056 295.385L186.221 306.891C186.248 306.939 186.274 306.989 186.287 307.047C186.298 307.109 186.295 307.172 186.285 307.231L188.15 317.137C188.199 317.394 188.05 317.649 187.802 317.733C187.732 317.759 180.703 320.137 171.619 321.227C167.699 321.698 162.471 322.185 157.648 322.185C151.901 322.185 146.728 321.492 145.031 319.253C144.294 318.281 144.204 317.104 144.764 315.753C147.674 308.742 163.789 304.057 167.044 303.175C166.692 302.122 165.827 299.602 164.652 296.633L155.692 296.889C155.687 296.889 155.682 296.889 155.677 296.889C155.451 296.889 155.248 296.746 155.176 296.529C155.099 296.302 147.592 273.984 145.517 267.387C143.652 267.445 141.735 267.477 139.76 267.477C138.972 267.477 138.173 267.472 137.368 267.462C137.087 267.459 136.857 267.236 136.847 266.955L136.446 255.952L127.255 256.304C127.677 269.905 128.229 284.496 128.752 296.736C128.753 296.765 128.741 296.792 128.737 296.821C128.747 296.855 128.763 296.887 128.765 296.924L129.379 315.332C129.387 315.565 129.24 315.775 129.02 315.849C128.951 315.875 121.921 318.254 112.837 319.343C108.919 319.814 103.69 320.301 98.8672 320.301C93.1198 320.301 87.9462 319.609 86.249 317.37C85.5113 316.397 85.4213 315.221 85.9822 313.869C88.9202 306.791 105.317 302.083 108.351 301.267C108.245 300.489 108.011 298.789 107.723 296.666L101.945 296.492C101.689 296.482 101.474 296.293 101.439 296.039C101.416 295.876 99.118 279.751 97.9302 264.479C93.2243 263.364 88.6019 261.971 88.2805 261.873C88.0475 261.803 87.8948 261.583 87.906 261.341C88.6405 247.16 92.6264 205.53 95.8505 173.019C95.701 172.799 95.5564 172.576 95.431 172.346C95.3908 172.273 95.3748 172.196 95.3699 172.118C94.3092 171.29 93.5441 170.393 93.2934 169.442C93.2805 169.39 93.2822 169.337 93.2854 169.286C91.9819 168.392 91.3872 167.584 91.1365 167.13H60.6557C58.6852 167.13 57.0828 165.528 57.0828 163.558V162.584C56.9125 162.608 56.7244 162.625 56.5187 162.625C56.0816 162.625 55.5785 162.551 55.0722 162.325C54.095 161.888 53.3654 161.01 52.8993 159.713C51.9092 156.95 50.6459 151.184 50.9529 147.982C51.0703 146.765 51.4978 145.661 52.1069 144.676C51.3451 144.615 50.7183 144.202 50.4402 143.49C49.8922 142.088 50.7424 139.682 54.9372 137.508ZM98.7354 144.295C98.054 145.449 97.0495 146.883 95.6255 148.448V153.149C95.6255 155.689 93.5586 157.754 91.0192 157.754C89.2593 157.754 87.7469 156.753 86.9706 155.301C82.2936 158.042 76.6796 160.21 70.2588 161.741C70.0113 161.921 69.7268 162.045 69.3861 162.079C69.2993 162.089 69.2125 162.092 69.1305 162.092C67.4172 162.092 66.5558 160.322 66.2343 159.454C64.4889 160.131 62.7097 160.79 61.3098 161.23V162.905H96.8582C97.6924 154.556 98.3658 147.929 98.7354 144.295ZM77.6472 129.504C80.3601 127.312 82.456 125.43 83.8687 123.912C84.023 123.747 84.166 123.58 84.3171 123.413H77.6472V129.504ZM61.3098 135.455C63.9489 135.222 65.99 135.917 68.4346 136.958V123.413H61.3098V135.455Z" fill="#024598"/>
<path d="M127.477 96.4684C134.659 96.7411 137.594 92.3361 137.715 92.1485C137.732 92.1212 137.758 92.1051 137.779 92.0827C138.007 91.4667 138.245 90.91 138.49 90.3999C137.327 89.7551 136.389 88.4605 136.456 86.6991C134.841 87.089 133.165 87.3007 131.457 87.3007C130.944 87.3007 130.428 87.2831 129.91 87.2462L128.237 87.1259C127.3 87.0601 126.39 86.9125 125.493 86.7296C125.494 86.8082 125.49 86.8949 125.493 86.9703C125.523 87.7242 125.557 88.5808 124.188 89.5818C123.746 89.9042 123.021 90.1224 121.921 90.4545C121.9 90.4609 121.876 90.4689 121.855 90.4737C121.852 90.5539 121.829 90.6309 121.789 90.7031C121.704 91.4891 121.672 93.1863 122.697 94.5146C123.63 95.7241 125.239 96.3818 127.477 96.4684ZM148.832 76.2593C148.979 76.0091 149.3 75.9241 149.556 76.07C149.58 76.0845 149.596 76.1085 149.618 76.1262C149.694 76.1182 149.769 76.123 149.843 76.1486C152.819 77.1945 155.69 75.7203 157.386 73.9959C159.231 72.1158 159.975 69.7144 159.283 67.876C158.858 66.7499 158.162 65.9719 157.215 65.5596C155.174 64.6725 152.575 65.7184 152.547 65.7297C152.507 65.7457 152.465 65.7473 152.423 65.7537C152.362 65.7762 152.298 65.789 152.235 65.789C152.084 65.789 151.936 65.7265 151.832 65.6029C151.427 65.1281 142.647 54.6963 141.637 46.1414C140.74 48.1049 139.621 51.2554 140.568 53.2045C140.648 53.3697 140.637 53.5654 140.538 53.7194C140.438 53.8734 140.303 53.9488 140.081 53.9616C139.305 53.9456 120.989 53.5317 116.544 50.9121C113.133 48.9021 112.573 45.928 112.834 43.5042C111.569 45.928 110.8 48.5893 110.603 51.3533L109.656 64.61C108.866 75.6578 117.237 85.2859 128.314 86.0735L129.987 86.1938C137.71 86.7344 144.931 82.9358 148.832 76.2593ZM119.444 64.5105C119.547 61.8589 120.757 59.7526 122.144 59.8071C123.533 59.8601 124.575 62.0546 124.472 64.7046C124.368 67.3563 123.159 69.4625 121.771 69.4096C120.383 69.3551 119.341 67.1622 119.444 64.5105ZM125.401 55.4872C125.377 55.7775 125.13 55.9973 124.831 55.97C120.17 55.5834 117.634 57.372 117.606 57.3897C117.513 57.4587 117.404 57.4908 117.296 57.4908C117.132 57.4908 116.973 57.4154 116.869 57.2742C116.698 57.04 116.748 56.7111 116.983 56.5395C117.095 56.4561 119.826 54.5054 124.917 54.9177C125.208 54.9434 125.425 55.1968 125.401 55.4872ZM128.349 68.6508C127.562 68.9604 127.094 69.315 126.957 69.7064C126.825 70.0898 126.967 70.6255 127.39 71.349C127.536 71.6009 127.452 71.9233 127.2 72.0693C127.116 72.119 127.025 72.1415 126.933 72.1415C126.752 72.1415 126.575 72.0484 126.477 71.88C126.102 71.2399 125.639 70.2807 125.959 69.3615C126.205 68.6556 126.859 68.1022 127.964 67.6707C128.235 67.5664 128.541 67.698 128.648 67.9691C128.754 68.2386 128.621 68.545 128.349 68.6508ZM142.5 59.196C142.478 59.1751 140.185 57.0945 135.504 56.902C135.213 56.8908 134.987 56.6454 134.998 56.355C135.011 56.0631 135.275 55.8192 135.548 55.8497C140.653 56.0582 143.122 58.3313 143.224 58.4276C143.436 58.6281 143.445 58.9602 143.246 59.1703C143.142 59.281 143.002 59.3371 142.862 59.3371C142.732 59.3371 142.602 59.2906 142.5 59.196ZM135.289 65.1249C135.392 62.4732 136.602 60.367 137.99 60.4199C139.377 60.4745 140.42 62.6673 140.316 65.319C140.213 67.9707 139.004 70.0769 137.617 70.0224C136.228 69.9694 135.186 67.7766 135.289 65.1249ZM128.965 78.8019C128.827 78.8019 128.687 78.7987 128.549 78.7907C125.451 78.6431 122.627 76.8689 121.178 74.1595C121.04 73.9028 121.138 73.5836 121.395 73.4456C121.656 73.3109 121.974 73.4071 122.111 73.6638C123.385 76.0476 125.872 77.6084 128.599 77.7384C131.325 77.8667 133.95 76.5481 135.445 74.2975C135.607 74.0552 135.935 73.9878 136.178 74.1499C136.421 74.3103 136.488 74.6375 136.327 74.8798C134.702 77.3245 131.912 78.8019 128.965 78.8019ZM109.606 72.6067C107.65 72.8906 105.576 71.8848 103.996 69.8491C102.24 67.5857 101.691 64.8137 102.629 62.9513C103.185 61.8428 103.935 61.1643 104.852 60.9365C106.643 60.4921 108.582 61.8412 108.601 61.854C108.657 61.8941 108.72 61.9198 108.784 61.9359L108.598 64.5362C108.399 67.3515 108.773 70.0769 109.606 72.6067ZM106.037 167.179C106.309 167.183 106.552 166.997 106.589 166.727C106.627 166.456 106.452 166.201 106.183 166.138C103.457 165.511 98.8822 164.01 98.2103 162.654C98.1283 162.491 98.1218 162.356 98.1894 162.208C99.0944 160.225 109.315 161.765 116.287 163.493C116.406 163.524 116.536 163.508 116.647 163.455L118.818 162.388C121.169 164.099 125.824 170.593 127.578 175.667C127.547 175.672 127.515 175.669 127.485 175.68C127.369 175.72 115.713 179.647 109.72 178.832C105.582 178.266 100.477 176.365 97.675 173.392C101.445 175.383 106.661 176.715 109.413 176.902C109.426 176.904 109.437 176.904 109.45 176.904C109.725 176.904 109.956 176.692 109.977 176.413C109.996 176.121 109.776 175.871 109.485 175.85C105.428 175.576 97.2232 172.996 94.9116 170.043C95.7877 170.482 96.8455 170.919 98.1492 171.323C102.497 172.674 106.835 172.863 108.915 172.863C109.656 172.863 110.111 172.837 110.175 172.834C110.467 172.818 110.689 172.569 110.673 172.277C110.657 171.989 110.429 171.769 110.115 171.782C110.056 171.783 104.172 172.09 98.4626 170.317C94.7059 169.149 93.0871 167.751 92.4216 166.942C99.5654 166.843 105.971 167.176 106.037 167.179ZM59.2893 140.446C60.4756 140.101 61.109 140.217 61.2312 140.372C62.2326 141.649 59.8519 144.503 58.8665 145.48C55.1837 147.299 54.1308 148.74 54.0874 148.801C53.9186 149.038 53.9749 149.367 54.2128 149.535C54.306 149.601 54.4121 149.633 54.5182 149.633C54.6838 149.633 54.8461 149.556 54.949 149.41C54.9571 149.401 55.9473 148.092 59.3793 146.404C59.569 146.35 60.6991 146.043 61.8324 146.043C62.8049 146.043 63.7694 146.271 64.1263 147.081C64.6246 148.21 62.9817 149.447 62.6522 149.681C58.8874 150.666 56.4022 151.608 54.3623 152.819C54.1115 152.968 54.0295 153.292 54.179 153.543C54.2787 153.708 54.4539 153.799 54.6323 153.799C54.7256 153.799 54.8188 153.777 54.904 153.725C56.8443 152.572 59.2362 151.667 62.8676 150.714C63.1939 150.827 64.1359 151.237 64.2517 152.298C64.3626 153.332 63.0139 154.364 62.4063 154.726C59.2025 155.267 55.2802 157.181 55.113 157.263C54.851 157.391 54.7433 157.707 54.8735 157.968C54.9651 158.154 55.1516 158.262 55.3461 158.262C55.4249 158.262 55.5036 158.246 55.5792 158.209C55.6194 158.188 59.4018 156.345 62.4288 155.795C62.7004 156.09 63.2164 156.812 63.0798 157.938C62.9014 159.406 59.5995 160.737 57.5612 161.23C57.5532 161.231 57.5291 161.241 57.505 161.249C57.468 161.259 57.431 161.265 57.3973 161.283C57.0645 161.38 56.2817 161.549 55.5084 161.198C54.8092 160.882 54.2707 160.209 53.909 159.202C52.93 156.478 51.7372 150.88 52.0202 147.95C52.3899 144.126 56.4938 141.26 59.2893 140.446ZM55.4393 138.33C56.0116 138.034 56.5614 137.783 57.0999 137.556V140.196C55.6563 140.918 54.1019 142.017 52.9139 143.444C52.8577 143.441 52.8014 143.44 52.7435 143.456C52.123 143.626 51.6199 143.444 51.4398 142.981C51.1023 142.118 51.8883 140.167 55.4393 138.33ZM65.3014 152.354C65.4187 152.076 66.0842 150.703 68.4537 148.356V152.984C68.4537 154.451 69.1578 155.743 70.2332 156.586L69.7895 156.764C68.0743 157.452 65.7756 158.373 63.6923 159.139C63.9205 158.807 64.0829 158.45 64.1295 158.063C64.287 156.772 63.8096 155.849 63.4093 155.325C64.1472 154.789 65.3416 153.698 65.3014 152.354ZM64.8625 150.974C64.5844 150.552 64.2292 150.241 63.8948 150.039C64.6744 149.336 65.7161 148.064 65.0956 146.656C64.3353 144.931 62.1892 144.864 60.6653 145.063C61.8308 143.632 63.2984 141.296 62.0622 139.723C61.8951 139.508 61.6314 139.379 61.3276 139.288V136.402C63.9093 136.155 65.9122 136.896 68.4183 137.973C68.4296 137.977 68.4424 137.976 68.4537 137.981V146.889C66.4877 148.728 65.4235 150.103 64.8625 150.974Z" fill="#F4D1C5"/>
<path d="M132.865 112.095V111.951C132.865 111.214 132.265 110.615 131.53 110.615H122.381C121.646 110.615 121.046 111.214 121.046 111.951V112.095C121.046 112.832 121.646 113.433 122.381 113.433H122.888C123.18 113.433 123.415 113.669 123.415 113.959V118.719H130.497V113.959C130.497 113.669 130.733 113.433 131.023 113.433H131.53C132.265 113.433 132.865 112.832 132.865 112.095ZM112.565 118.721H105.484V113.938C105.484 113.646 105.249 113.41 104.957 113.41H104.45C103.715 113.41 103.115 112.811 103.115 112.075V111.93C103.115 111.193 103.715 110.594 104.45 110.594H113.599C114.334 110.594 114.932 111.193 114.932 111.93V112.075C114.932 112.811 114.334 113.41 113.599 113.41H113.092C112.8 113.41 112.565 113.646 112.565 113.938V118.721ZM113.619 118.442V114.467C113.821 114.465 114.015 114.43 114.203 114.38C114.004 115.698 113.809 117.051 113.619 118.442ZM139.705 108.257C139.682 108.268 139.669 108.287 139.65 108.302C139.62 108.324 139.589 108.345 139.565 108.372C139.543 108.398 139.527 108.427 139.509 108.456C139.493 108.485 139.474 108.512 139.463 108.544C139.45 108.579 139.447 108.616 139.442 108.653C139.439 108.676 139.427 108.698 139.427 108.722V118.721H134.771C135.59 104.832 137.153 95.442 139.419 90.7717C139.588 90.8119 139.788 90.8568 140.04 90.9114C141.114 91.1474 142.856 91.5327 144.977 92.2006C145.429 97.7635 145.794 103.956 145.592 104.644C145.312 105.057 142.311 106.855 139.705 108.257ZM130.497 123.351H123.415V153.055C123.415 155.011 125.004 156.6 126.956 156.6C128.909 156.6 130.497 155.011 130.497 153.055V123.351ZM129.442 152.805C129.442 154.178 128.327 155.293 126.956 155.293C125.584 155.293 124.468 154.178 124.468 152.805V126.793C124.468 126.501 124.704 126.265 124.996 126.265H128.915C129.207 126.265 129.442 126.501 129.442 126.793V152.805ZM109.296 109.538H104.45C103.134 109.538 102.062 110.61 102.062 111.928V112.075C102.062 113.386 103.123 114.455 104.431 114.465V118.719H95.7109V114.488C97.019 114.476 98.0785 113.407 98.0785 112.095V111.951C98.0785 110.699 97.1103 109.679 95.8841 109.58C98.6059 106.048 101.469 102.997 104.853 100.082C107.392 97.8919 109.718 96.2222 111.813 94.9283C110.048 97.5981 106.967 102.268 106.537 102.984C105.959 103.951 107.613 106.942 109.296 109.538ZM113.6 109.538H110.558C108.928 107.074 107.313 104.097 107.458 103.493C107.998 102.599 113.328 94.5494 113.868 93.7354C116.481 92.313 118.658 91.4926 120.35 90.9403C118.342 94.1496 116.558 100.395 114.918 109.938C114.54 109.686 114.087 109.538 113.6 109.538ZM151.161 146.065C149.504 136.781 147.029 122.691 147.003 121.921C146.992 121.633 146.729 121.431 146.466 121.405C146.179 121.41 145.948 121.638 145.948 121.926C145.948 122.802 149.392 142.149 150.054 145.86L143.643 149.021V108.721C143.643 108.429 143.408 108.193 143.116 108.193H142.003C143.916 107.114 146.238 105.706 146.551 105.081C146.934 104.312 146.436 97.1903 146.064 92.5586C147.346 92.9969 148.734 93.5379 150.188 94.2042C150.276 94.3166 150.405 94.3936 150.558 94.4065C150.576 94.4065 150.591 94.4001 150.608 94.4001C154.521 96.2463 158.823 99.0061 162.55 103.209C172.438 114.354 177.452 151.163 174.552 159.286C173.741 161.561 168.837 165.817 150.084 173.172C141.22 176.648 132.491 179.526 129.075 180.626C129.256 180.072 129.327 179.423 129.281 178.677C128.958 173.506 123.061 164.684 119.86 161.927L150.876 146.63C151.086 146.528 151.203 146.296 151.161 146.065ZM139.427 151.102L138.015 151.797L139.427 144.074V151.102ZM139.427 138.271C139.423 138.287 139.413 138.3 139.41 138.317L136.837 152.379L134.133 153.712C134.083 150.644 133.918 137.324 134.534 123.351H139.427V138.271ZM127.857 176.712C128.057 177.437 128.191 178.123 128.229 178.744C128.296 179.833 128.067 180.618 127.572 181.106C127.57 181.106 127.569 181.106 127.569 181.106C127.45 181.143 127.362 181.221 127.298 181.316C126.253 181.767 123.877 180.091 122.112 178.417C125.215 177.62 127.581 176.821 127.795 176.747C127.819 176.739 127.835 176.723 127.857 176.712ZM108.506 179.77C106.416 219.796 105.928 259.529 105.872 264.586C101.379 264.355 91.2146 261.401 89.0842 260.77C89.8617 246.405 93.712 206.069 96.8763 174.08C99.6094 177.039 104.375 179.006 108.506 179.77ZM73.1843 157.634C75.7186 157.634 77.7784 155.571 77.7784 153.034V130.791C80.8497 128.338 83.1981 126.244 84.7546 124.57C85.1313 124.165 85.4919 123.759 85.843 123.351H86.5211V153.055C86.5211 153.458 86.5884 153.842 86.6862 154.214C82.3693 156.769 77.2093 158.816 71.3328 160.315C71.7063 159.329 71.7929 158.133 71.8057 157.398C72.2433 157.538 72.7002 157.634 73.1843 157.634ZM109.025 156.579C110.976 156.579 112.565 154.988 112.565 153.034V123.351H105.484V153.034C105.484 154.988 107.073 156.579 109.025 156.579ZM109.025 155.272C107.653 155.272 106.539 154.155 106.539 152.782V126.771C106.539 126.479 106.775 126.243 107.065 126.243H110.984C111.276 126.243 111.512 126.479 111.512 126.771V152.782C111.512 154.155 110.396 155.272 109.025 155.272ZM134.707 179.884C143.627 176.872 159.118 171.289 168.294 165.966C168.385 166.628 168.597 167.723 168.951 169.559L171.014 180.228C172.723 189.054 175.007 200.824 177.291 212.594C181.499 234.269 185.713 255.944 186.353 259.237C185.281 259.65 182.036 260.825 176.841 262.095C176.769 262.077 176.695 262.072 176.618 262.088C176.53 262.106 176.458 262.149 176.392 262.204C168.081 264.199 154.983 266.383 137.856 266.195L137.459 255.294C137.467 255.255 137.48 255.217 137.478 255.177C137.477 255.138 137.461 255.108 137.451 255.072L134.707 179.884ZM127.075 211.953C129.446 212.993 133.686 229.573 135.8 239.777C135.806 239.814 135.827 239.843 135.842 239.875L136.382 254.69L127.224 255.042C126.554 233.066 126.243 213.928 126.983 211.929C127.008 211.929 127.035 211.935 127.075 211.953ZM85.2066 112.095V111.951C85.2066 111.214 85.8045 110.615 86.5403 110.615H95.6901C96.4259 110.615 97.0238 111.214 97.0238 111.951V112.095C97.0238 112.832 96.4259 113.433 95.6901 113.433H95.1836C94.8918 113.433 94.6562 113.669 94.6562 113.959V118.719H87.5742V113.959C87.5742 113.669 87.3386 113.433 87.0468 113.433H86.5403C85.8045 113.433 85.2066 112.832 85.2066 112.095ZM94.6562 123.351H87.5742V153.055C87.5742 155.011 89.1628 156.6 91.1152 156.6C93.0676 156.6 94.6562 155.011 94.6562 153.055V123.351ZM93.6014 152.805C93.6014 154.178 92.4857 155.293 91.1152 155.293C89.743 155.293 88.629 154.178 88.629 152.805V126.793C88.629 126.501 88.8646 126.265 89.1564 126.265H93.0756C93.3658 126.265 93.6014 126.501 93.6014 126.793V152.805ZM70.7429 157.624C70.6836 158.997 70.3534 160.834 69.4349 160.925C68.2663 161.041 67.6187 159.641 67.3767 158.97C68.4362 158.552 69.4525 158.143 70.3149 157.796L70.7429 157.624ZM76.7252 153.034V123.351H69.6433V153.034C69.6433 154.988 71.2318 156.579 73.1843 156.579C75.1367 156.579 76.7252 154.988 76.7252 153.034ZM75.6721 152.782C75.6721 154.155 74.5564 155.272 73.1843 155.272C71.8121 155.272 70.698 154.155 70.698 152.782V126.771C70.698 126.479 70.9337 126.243 71.2254 126.243H75.1447C75.4364 126.243 75.6721 126.479 75.6721 126.771V152.782ZM99.7488 140.674C99.4763 140.619 99.2167 140.783 99.1413 141.047C99.1349 141.072 98.3959 143.524 95.7109 146.754V123.351H104.431V153.034C104.431 154.542 105.169 155.87 106.291 156.708L106.853 160.649C103.33 160.188 99.8562 160.065 98.1811 160.957C99.3641 149.14 100.172 141.246 100.172 141.246C100.199 140.974 100.017 140.727 99.7488 140.674ZM68.6094 110.593H77.7592C78.4949 110.593 79.0928 111.192 79.0928 111.928V112.075C79.0928 112.811 78.4949 113.41 77.7592 113.41H77.251C76.9609 113.41 76.7252 113.646 76.7252 113.938V118.719H69.6433V113.938C69.6433 113.646 69.4076 113.41 69.1175 113.41H68.6094C67.8736 113.41 67.2757 112.811 67.2757 112.075V111.928C67.2757 111.192 67.8736 110.593 68.6094 110.593ZM107.908 160.582L107.445 157.335C107.94 157.52 108.467 157.634 109.025 157.634C109.306 157.634 109.578 157.599 109.846 157.551C109.764 158.719 109.686 159.891 109.607 161.068C109.045 160.972 108.472 160.879 107.895 160.794C107.913 160.726 107.918 160.654 107.908 160.582Z" fill="white"/>
<path d="M142.504 109.406H140.393V150.772L142.504 149.731V109.406ZM96.1134 306.908C96.1551 306.913 96.1919 306.924 96.2385 306.919C96.4229 306.908 101.028 306.73 103.034 311.084C103.124 311.277 103.315 311.389 103.514 311.389C103.588 311.389 103.663 311.375 103.735 311.341C103.998 311.219 104.114 310.906 103.993 310.64C102.534 307.477 99.8264 306.402 98.014 306.04C98.6556 305.762 99.2971 305.496 99.9291 305.243C99.9419 305.245 99.9515 305.25 99.9628 305.25C99.9724 305.25 99.9884 305.248 100.021 305.25C100.54 305.25 104.815 305.38 106.743 309.562C106.831 309.755 107.022 309.869 107.221 309.869C107.294 309.869 107.37 309.853 107.442 309.819C107.707 309.697 107.822 309.384 107.7 309.119C106.282 306.044 103.77 304.891 101.989 304.459C102.484 304.278 102.967 304.106 103.434 303.945C104.247 303.942 108.725 304.159 110.589 308.205C110.679 308.397 110.869 308.51 111.068 308.51C111.142 308.51 111.217 308.495 111.29 308.462C111.553 308.34 111.668 308.026 111.546 307.761C110.185 304.805 107.639 303.646 105.726 303.188C107.424 302.653 108.629 302.329 108.935 302.248C109.245 302.264 111.37 302.428 113.218 304.006C114.687 305.258 115.101 307.621 115.105 307.645C115.129 307.784 115.206 307.907 115.32 307.988C115.41 308.05 115.518 308.086 115.625 308.086C115.656 308.086 115.684 308.082 115.715 308.078L127.91 305.986L128.211 315.027C126.662 315.523 120.421 317.415 112.647 318.35C98.439 320.058 89.1219 319.486 87.0785 316.788C86.578 316.126 86.5347 315.323 86.9453 314.33C88.1483 311.426 91.9752 308.896 96.1134 306.908ZM108.919 154.41C108.128 154.41 107.485 153.767 107.485 152.975V127.469H110.353V152.975C110.353 153.767 109.71 154.41 108.919 154.41ZM73.057 154.41C72.2662 154.41 71.6247 153.767 71.6247 152.975V127.469H74.4909V152.975C74.4909 153.767 73.8477 154.41 73.057 154.41ZM60.2946 163.53C60.2946 163.82 60.5303 164.057 60.8223 164.057H97.6708C97.6884 164.057 97.7044 164.049 97.7221 164.047C98.601 164.91 100.215 165.657 101.791 166.229C99.071 166.152 95.3242 166.089 91.4347 166.166C91.4299 166.166 91.4267 166.169 91.4235 166.169H60.6971C59.313 166.169 58.1854 165.041 58.1854 163.655V162.418C58.6056 162.307 59.4044 162.074 60.2946 161.712V163.53ZM60.2946 109.406V139.422C59.9096 139.452 59.4942 139.516 59.0211 139.655C58.758 139.732 58.4757 139.833 58.1854 139.945V109.406H60.2946ZM154.827 308.767C154.852 308.769 154.876 308.778 154.904 308.775C155.099 308.772 159.69 308.611 161.696 312.967C161.786 313.16 161.977 313.272 162.176 313.272C162.249 313.272 162.325 313.258 162.395 313.224C162.66 313.102 162.776 312.789 162.654 312.524C161.202 309.376 158.52 308.283 156.711 307.909C157.475 307.576 158.235 307.266 158.982 306.974C159.003 306.977 159.022 306.987 159.043 306.987C159.221 306.99 163.388 307.077 165.403 311.445C165.491 311.638 165.682 311.751 165.882 311.751C165.956 311.751 166.03 311.736 166.102 311.703C166.367 311.58 166.482 311.267 166.36 311.002C164.942 307.927 162.578 306.72 160.921 306.243C161.322 306.098 161.715 305.958 162.096 305.828C162.91 305.822 167.385 306.042 169.251 310.088C169.339 310.279 169.53 310.393 169.73 310.393C169.804 310.393 169.878 310.379 169.95 310.345C170.215 310.223 170.33 309.908 170.208 309.644C168.845 306.686 166.291 305.529 164.378 305.075C166.081 304.536 167.289 304.212 167.595 304.131C167.907 304.148 170.03 304.311 171.878 305.888C173.349 307.141 173.762 309.504 173.766 309.529C173.79 309.668 173.87 309.794 173.987 309.874C174.075 309.937 174.179 309.969 174.287 309.969C174.321 309.969 174.354 309.966 174.388 309.958L185.097 307.833L186.807 316.929C185.157 317.455 178.978 319.311 171.305 320.231C157.099 321.939 147.782 321.369 145.739 318.669C145.238 318.009 145.195 317.206 145.607 316.213C146.815 313.296 150.669 310.758 154.827 308.767ZM61.5617 119.941H139.328V122.462H61.5601V119.941H61.5617Z" fill="#F4B47E"/>
<path d="M128.298 153.066V127.586H125.43V153.066C125.43 153.856 126.074 154.5 126.865 154.5C127.656 154.5 128.298 153.856 128.298 153.066ZM182.717 295.046L155.922 295.811C154.947 292.904 148.522 273.783 146.493 267.372C159.315 266.899 169.388 265.171 176.295 263.537L182.717 295.046ZM92.4152 127.586V153.066C92.4152 153.856 91.7716 154.5 90.9804 154.5C90.1892 154.5 89.5456 153.856 89.5456 153.066V127.586H92.4152ZM106.807 265.377C106.81 264.953 107.218 222.759 109.439 180.197C109.453 180.201 109.469 180.204 109.484 180.205C110.1 180.29 110.768 180.327 111.471 180.327C114.345 180.327 117.813 179.69 120.808 178.973C121.808 179.981 124.702 182.703 126.827 182.703C127.276 182.703 127.688 182.579 128.045 182.292C128.778 182.061 130.784 181.427 133.582 180.493L135.553 234.397C135.007 232.04 134.312 229.162 133.542 226.262C130.218 213.749 128.449 211.696 127.408 211.239C127.016 211.068 126.623 211.089 126.271 211.301C125.708 211.638 124.764 212.205 126.064 254.714C126.074 255.002 126.082 255.293 126.092 255.582C126.045 255.665 126.011 255.757 126.014 255.86C126.019 255.959 126.058 256.046 126.108 256.123C126.684 274.594 127.436 292.795 127.579 296.203L108.461 295.623L107.776 295.603L102.367 295.439C101.995 292.774 100.039 278.467 98.9569 264.757C101.799 265.401 104.552 265.898 106.277 265.898C106.568 265.898 106.803 265.666 106.807 265.377Z" fill="#ADE1DA"/>
</svg>
