<svg width="252" height="196" viewBox="0 0 252 196" fill="none" xmlns="http://www.w3.org/2000/svg">
<g id="Layer-3">
<path id="Vector" d="M47.5908 3.04014C39.0956 3.43321 30.5447 6.71351 22.6985 13.1545C-2.40958 33.7655 -3.30655 75.63 18.8132 107.842C45.079 146.09 97.2224 183.565 100.445 184.782C100.445 184.782 153.994 144.284 180.837 109.398C204.856 78.1818 203.892 33.7655 178.784 13.1545C153.675 -7.4565 121.379 4.30772 106.645 39.4315C103.967 45.8163 102.072 48.5453 100.741 58.7925C99.41 48.5453 97.5149 45.8163 94.8367 39.4315C84.7072 15.2839 66.2798 2.17636 47.5908 3.04014Z" fill="#E04E32" stroke="#034599" stroke-width="5" stroke-miterlimit="10" stroke-linejoin="round"/>
<path id="Vector_2" d="M111.415 108.622H249V193.155H111.415V108.622Z" fill="#E0EDFF" stroke="#034599" stroke-width="5" stroke-miterlimit="10" stroke-linejoin="round"/>
<path id="Vector_3" d="M123.132 140.142H157.335V178.243H123.132V140.142Z" fill="#8ABBFF" stroke="#034599" stroke-width="1.19526" stroke-miterlimit="10" stroke-linejoin="round"/>
<path id="Vector_4" d="M183.074 140.142H236.442V146.228H183.074V140.142Z" fill="#8ABBFF" stroke="#034599" stroke-width="1.19526" stroke-miterlimit="10" stroke-linejoin="round"/>
<path id="Vector_5" d="M123.132 116.753H198.251V122.839H123.132V116.753Z" fill="#8ABBFF" stroke="#034599" stroke-width="1.19526" stroke-miterlimit="10" stroke-linejoin="round"/>
<path id="Vector_6" d="M123.132 126.249H176.5V132.334H123.132V126.249Z" fill="#8ABBFF" stroke="#034599" stroke-width="1.19526" stroke-miterlimit="10" stroke-linejoin="round"/>
<path id="Vector_7" d="M183.494 150.964H236.862V157.049H183.494V150.964Z" fill="#8ABBFF" stroke="#034599" stroke-width="1.19526" stroke-miterlimit="10" stroke-linejoin="round"/>
<path id="Vector_8" d="M183.074 161.86H236.442V167.946H183.074V161.86Z" fill="#8ABBFF" stroke="#034599" stroke-width="1.19526" stroke-miterlimit="10" stroke-linejoin="round"/>
<path id="Vector_9" d="M183.494 172.157H236.862V178.242H183.494V172.157Z" fill="#8ABBFF" stroke="#034599" stroke-width="1.19526" stroke-miterlimit="10" stroke-linejoin="round"/>
</g>
</svg>
