<svg width="66" height="100" viewBox="0 0 66 100" fill="none" xmlns="http://www.w3.org/2000/svg">
<g id="Layer-5">
<path id="Vector" d="M22.1597 32.7827C22.1597 32.7827 31.5855 40.1168 43.2215 32.8741C43.2215 32.8741 53.6436 33.762 46.7715 44.0464C46.7715 44.0464 32.3906 51.9694 18.7506 43.8257C18.7506 43.8257 11.9045 35.4441 22.1597 32.7827Z" fill="#FF8919" stroke="#034599" stroke-width="2" stroke-miterlimit="10" stroke-linejoin="round"/>
<path id="Vector_2" d="M18.8902 44.1035C18.8902 44.1035 29.1453 51.5719 46.5634 44.6582C46.5634 44.6582 56.9533 45.9442 50.0837 56.2286C50.0837 56.2286 32.9852 66.9985 14.8445 55.4784C14.8445 55.4784 8.63503 46.7647 18.8902 44.1035Z" fill="#FFD41E" stroke="#034599" stroke-width="2" stroke-miterlimit="10" stroke-linejoin="round"/>
<path id="Vector_3" d="M15.0505 55.6096C15.0505 55.6096 30.7134 66.9647 49.9796 56.0394C49.9796 56.0394 60.0524 58.7694 53.3116 67.5474C53.3116 67.5474 35.351 80.3705 11.3174 67.2347C11.3174 67.2347 4.79536 58.271 15.0505 55.6096Z" fill="#7AEC47" stroke="#034599" stroke-width="2" stroke-miterlimit="10" stroke-linejoin="round"/>
<path id="Vector_4" d="M11.2518 67.3271C11.2518 67.3271 31.4369 80.126 53.4876 67.8372C53.4876 67.8372 64.0385 69.6871 57.0624 79.9073C57.0624 79.9073 32.8811 93.7771 7.75979 78.7917C7.75979 78.7917 0.996683 69.9885 11.2518 67.3271Z" fill="#8ABBFF" stroke="#034599" stroke-width="2" stroke-miterlimit="10" stroke-linejoin="round"/>
<path id="Vector_5" d="M7.85067 79.4199C7.85067 79.4199 31.6152 93.8739 57.3621 79.8356C57.3621 79.8356 58.7642 79.8606 60.0078 80.3695C63.5256 81.8088 66.8676 86.8108 60.8254 92.0382C60.8254 92.0382 34.9323 108.086 3.50816 91.4513C3.50816 91.4513 1.8112 90.1079 1.27262 88.1716C0.413487 85.0838 1.32117 80.6967 7.85067 79.4199Z" fill="#02A1E3" stroke="#034599" stroke-width="2" stroke-miterlimit="10" stroke-linejoin="round"/>
<path id="Vector_6" d="M32.6334 1L22.4665 28.5888C22.4665 28.5888 19.6938 31.4469 26.4411 34.5138C28.9427 35.6506 33.939 37.2594 39.8697 34.2799C43.0332 32.6902 44.1381 31.5581 43.2735 29.2074L32.6334 1Z" fill="#E04E32" stroke="#034599" stroke-width="2" stroke-miterlimit="10" stroke-linejoin="round"/>
</g>
</svg>
