<svg width="130" height="101" viewBox="0 0 130 101" fill="none" xmlns="http://www.w3.org/2000/svg">
<g id="Layer-3">
<path id="Vector" d="M24.1118 1.0208C19.7087 1.22454 15.2767 2.92475 11.2099 6.26315C-1.80383 16.946 -2.26874 38.6448 9.19613 55.3403C22.8099 75.1648 49.8363 94.5883 51.5066 95.2192C51.5066 95.2192 79.2617 74.2289 93.1743 56.1472C105.624 39.9674 105.124 16.946 92.1101 6.26315C79.0964 -4.4197 62.357 1.6778 54.7203 19.8828C53.3321 23.1921 52.3499 24.6065 51.66 29.9177C50.9701 24.6065 49.9879 23.1921 48.5997 19.8828C43.3496 7.36684 33.7985 0.573102 24.1118 1.0208Z" fill="#E04E32" stroke="#034599" stroke-width="2" stroke-miterlimit="10" stroke-linejoin="round"/>
<path id="Vector_2" d="M57.1923 55.7448H128.504V99.5591H57.1923V55.7448Z" fill="#E0EDFF" stroke="#034599" stroke-width="2" stroke-miterlimit="10" stroke-linejoin="round"/>
<path id="Vector_3" d="M63.2654 72.082H80.993V91.8297H63.2654V72.082Z" fill="#8ABBFF" stroke="#034599" stroke-width="1.19526" stroke-miterlimit="10" stroke-linejoin="round"/>
<path id="Vector_4" d="M94.3342 72.082H121.995V75.2361H94.3342V72.082Z" fill="#8ABBFF" stroke="#034599" stroke-width="1.19526" stroke-miterlimit="10" stroke-linejoin="round"/>
<path id="Vector_5" d="M63.2654 59.9593H102.2V63.1135H63.2654V59.9593Z" fill="#8ABBFF" stroke="#034599" stroke-width="1.19526" stroke-miterlimit="10" stroke-linejoin="round"/>
<path id="Vector_6" d="M63.2654 64.8808H90.9265V68.0347H63.2654V64.8808Z" fill="#8ABBFF" stroke="#034599" stroke-width="1.19526" stroke-miterlimit="10" stroke-linejoin="round"/>
<path id="Vector_7" d="M94.5518 77.691H122.213V80.8451H94.5518V77.691Z" fill="#8ABBFF" stroke="#034599" stroke-width="1.19526" stroke-miterlimit="10" stroke-linejoin="round"/>
<path id="Vector_8" d="M94.3342 83.3386H121.995V86.4927H94.3342V83.3386Z" fill="#8ABBFF" stroke="#034599" stroke-width="1.19526" stroke-miterlimit="10" stroke-linejoin="round"/>
<path id="Vector_9" d="M94.5518 88.6758H122.213V91.8297H94.5518V88.6758Z" fill="#8ABBFF" stroke="#034599" stroke-width="1.19526" stroke-miterlimit="10" stroke-linejoin="round"/>
</g>
</svg>
