<svg width="288" height="265" viewBox="0 0 288 265" fill="none" xmlns="http://www.w3.org/2000/svg">
<rect width="288" height="214" rx="10" fill="#02A1E3"/>
<path d="M87.0443 112.746C87.6518 112.431 88.2396 112.166 88.8036 111.939V89.181C88.8036 88.9412 88.9973 88.7475 89.2371 88.7475H91.8358C92.0757 88.7475 92.2694 88.9412 92.2694 89.181V97.3882H98.1111V93.8961C97.0358 93.8869 96.1648 93.0092 96.1648 91.9326V91.814C96.1648 90.7308 97.0451 89.8505 98.127 89.8505H105.649C106.731 89.8505 107.612 90.7308 107.612 91.814V91.9326C107.612 93.0092 106.74 93.8869 105.665 93.8961V97.3882H112.852V96.6252C111.01 96.0098 109.778 94.5155 109.778 92.8577C109.778 90.7426 111.736 88.9992 114.226 88.8068C113.146 87.3243 112.773 85.6124 113.206 83.9916C113.84 81.6274 116.139 79.9499 118.963 79.6929C117.17 77.5976 116.483 75.0213 117.119 72.6414C117.694 70.4947 119.255 68.7539 121.515 67.7405C122.992 67.079 124.657 66.7891 126.362 66.8655C124.094 65.3039 122.654 63.6224 121.737 61.514C117.426 51.6055 125.212 39.4422 130.235 33.0733C138.114 23.0871 147.586 22.7932 151.291 23.128C157.969 23.7355 160.841 28.1804 161.518 29.4244C162.966 29.178 164.657 29.7038 166.555 30.9952C172.142 34.7944 179.116 45.4092 180.187 54.5652C180.998 61.4916 177.229 65.976 173.999 68.4904C178.964 67.643 183.646 70.0124 184.742 74.1081C185.379 76.488 184.691 79.0643 182.898 81.1596C185.723 81.4179 188.022 83.0941 188.654 85.4583C189.088 87.0791 188.717 88.791 187.635 90.2748C190.127 90.4659 192.084 92.2093 192.084 94.3257C192.084 96.5686 189.884 98.3924 187.181 98.3924C184.477 98.3924 182.277 96.5686 182.277 94.3257C182.277 94.0463 182.31 93.7722 182.379 93.5021C181.986 93.5785 181.591 93.618 181.198 93.6404C186.021 106.564 187.949 125.629 186.038 130.977C185.52 132.424 183.59 134.047 180.846 135.712C181.27 138.065 195.695 212.159 195.841 212.914C195.881 213.116 195.774 213.316 195.584 213.395C195.521 213.423 192.731 214.574 187.522 215.854L192.872 242.095C192.887 242.127 192.905 242.157 192.912 242.193L194.687 251.627C194.709 251.666 194.73 251.707 194.741 251.755C194.75 251.806 194.748 251.857 194.74 251.906L196.268 260.028C196.309 260.238 196.187 260.448 195.984 260.517C195.926 260.538 190.163 262.488 182.715 263.381C179.501 263.768 175.214 264.167 171.259 264.167C166.547 264.167 162.306 263.599 160.915 261.763C160.31 260.966 160.236 260.001 160.696 258.893C163.081 253.145 176.295 249.303 178.963 248.58C178.674 247.717 177.965 245.651 177.002 243.217L169.655 243.426C169.652 243.426 169.648 243.426 169.644 243.426C169.458 243.426 169.292 243.309 169.232 243.131C169.169 242.945 163.014 224.646 161.313 219.237C159.784 219.284 158.212 219.31 156.592 219.31C155.946 219.31 155.292 219.307 154.631 219.299C154.401 219.296 154.212 219.113 154.204 218.882L153.875 209.861L146.34 210.149C146.685 221.302 147.138 233.265 147.567 243.301C147.568 243.325 147.557 243.347 147.555 243.371C147.563 243.398 147.576 243.425 147.577 243.455L148.081 258.548C148.087 258.739 147.967 258.911 147.787 258.972C147.73 258.993 141.966 260.944 134.518 261.837C131.305 262.223 127.018 262.622 123.064 262.622C118.351 262.622 114.109 262.054 112.718 260.219C112.113 259.421 112.039 258.457 112.499 257.349C114.908 251.545 128.352 247.685 130.84 247.016C130.753 246.378 130.56 244.984 130.325 243.243L125.587 243.101C125.378 243.093 125.201 242.937 125.172 242.729C125.154 242.596 123.269 229.374 122.295 216.853C118.437 215.938 114.647 214.796 114.383 214.715C114.192 214.659 114.067 214.478 114.076 214.279C114.678 202.652 117.947 168.519 120.59 141.862C120.468 141.682 120.349 141.499 120.246 141.31C120.213 141.251 120.2 141.188 120.196 141.123C119.326 140.445 118.699 139.709 118.493 138.929C118.483 138.887 118.484 138.843 118.487 138.801C117.418 138.069 116.931 137.406 116.725 137.034H91.733C90.1174 137.034 88.8036 135.72 88.8036 134.105V133.306C88.6639 133.326 88.5097 133.34 88.341 133.34C87.9826 133.34 87.5701 133.28 87.155 133.094C86.3538 132.735 85.7555 132.016 85.3734 130.952C84.5616 128.687 83.5258 123.959 83.7775 121.334C83.8737 120.336 84.2242 119.431 84.7237 118.623C84.0991 118.573 83.5851 118.234 83.3571 117.651C82.9078 116.502 83.6049 114.529 87.0443 112.746ZM122.956 118.311C122.397 119.257 121.573 120.432 120.406 121.716V125.571C120.406 127.653 118.711 129.346 116.629 129.346C115.186 129.346 113.946 128.525 113.309 127.335C109.474 129.582 104.871 131.36 99.6068 132.615C99.4039 132.763 99.1707 132.865 98.8913 132.892C98.8201 132.9 98.749 132.903 98.6818 132.903C97.277 132.903 96.5706 131.452 96.3071 130.74C94.876 131.295 93.4172 131.835 92.2694 132.196V133.57H121.416C122.1 126.724 122.652 121.29 122.956 118.311ZM105.665 106.183C107.889 104.386 109.608 102.843 110.766 101.599C110.892 101.463 111.01 101.326 111.134 101.189H105.665V106.183ZM92.2694 111.063C94.4332 110.872 96.1068 111.441 98.1111 112.295V101.189H92.2694V111.063Z" fill="#024598"/>
<path d="M146.521 79.0968C152.41 79.3204 154.816 75.7087 154.915 75.5548C154.93 75.5324 154.951 75.5193 154.968 75.5008C155.155 74.9958 155.35 74.5394 155.551 74.1211C154.598 73.5924 153.828 72.5309 153.883 71.0868C152.559 71.4064 151.185 71.58 149.784 71.58C149.364 71.58 148.941 71.5655 148.516 71.5353L147.144 71.4366C146.376 71.3827 145.63 71.2617 144.894 71.1117C144.896 71.1762 144.892 71.2472 144.894 71.309C144.919 71.9272 144.947 72.6296 143.824 73.4503C143.462 73.7147 142.867 73.8936 141.966 74.1658C141.948 74.1711 141.929 74.1777 141.912 74.1816C141.909 74.2474 141.89 74.3105 141.857 74.3697C141.788 75.0142 141.761 76.4058 142.602 77.4948C143.367 78.4865 144.686 79.0258 146.521 79.0968ZM164.031 62.5269C164.151 62.3217 164.414 62.252 164.624 62.3717C164.644 62.3835 164.657 62.4033 164.675 62.4177C164.737 62.4112 164.799 62.4151 164.86 62.4361C167.299 63.2937 169.653 62.085 171.044 60.671C172.557 59.1295 173.167 57.1606 172.599 55.6532C172.251 54.7299 171.681 54.092 170.904 53.754C169.23 53.0266 167.099 53.8842 167.077 53.8934C167.044 53.9065 167.01 53.9079 166.975 53.9131C166.925 53.9315 166.872 53.9421 166.821 53.9421C166.697 53.9421 166.576 53.8908 166.49 53.7895C166.158 53.4002 158.959 44.8469 158.131 37.8325C157.396 39.4424 156.478 42.0256 157.255 43.6237C157.321 43.7591 157.311 43.9196 157.23 44.0459C157.148 44.1721 157.037 44.234 156.855 44.2445C156.219 44.2313 141.201 43.892 137.557 41.7441C134.76 40.0961 134.301 37.6576 134.515 35.6702C133.477 37.6576 132.847 39.8396 132.685 42.1058L131.909 52.9753C131.262 62.0337 138.125 69.928 147.207 70.5738L148.579 70.6724C154.911 71.1157 160.832 68.0011 164.031 62.5269ZM139.934 52.8938C140.019 50.7196 141.011 48.9927 142.149 49.0374C143.288 49.0808 144.142 50.8801 144.057 53.0529C143.972 55.2271 142.98 56.9541 141.843 56.9106C140.704 56.8659 139.85 55.0679 139.934 52.8938ZM144.819 45.4953C144.799 45.7334 144.596 45.9136 144.351 45.8912C140.53 45.5742 138.45 47.0408 138.428 47.0552C138.352 47.1118 138.262 47.1381 138.174 47.1381C138.039 47.1381 137.909 47.0763 137.823 46.9605C137.683 46.7685 137.724 46.4989 137.917 46.3581C138.009 46.2898 140.248 44.6904 144.422 45.0284C144.661 45.0494 144.839 45.2573 144.819 45.4953ZM147.236 56.2885C146.591 56.5424 146.207 56.833 146.095 57.154C145.987 57.4683 146.103 57.9076 146.45 58.5008C146.569 58.7073 146.501 58.9717 146.294 59.0914C146.225 59.1322 146.15 59.1506 146.075 59.1506C145.926 59.1506 145.781 59.0743 145.701 58.9362C145.394 58.4114 145.014 57.6248 145.276 56.8712C145.478 56.2925 146.015 55.8387 146.92 55.4849C147.143 55.3994 147.393 55.5072 147.482 55.7295C147.569 55.9505 147.459 56.2017 147.236 56.2885ZM158.839 48.5363C158.821 48.5192 156.941 46.8132 153.103 46.6554C152.864 46.6462 152.679 46.445 152.688 46.2069C152.698 45.9675 152.914 45.7676 153.139 45.7926C157.325 45.9636 159.349 47.8273 159.432 47.9062C159.606 48.0706 159.614 48.3429 159.451 48.5152C159.365 48.606 159.25 48.652 159.136 48.652C159.029 48.652 158.922 48.6139 158.839 48.5363ZM152.926 53.3975C153.011 51.2234 154.003 49.4964 155.141 49.5398C156.278 49.5845 157.133 51.3825 157.048 53.5567C156.963 55.7308 155.972 57.4578 154.835 57.4131C153.696 57.3697 152.842 55.5717 152.926 53.3975ZM147.741 64.6116C147.628 64.6116 147.513 64.609 147.4 64.6024C144.86 64.4814 142.544 63.0267 141.357 60.8052C141.243 60.5948 141.324 60.333 141.535 60.2199C141.748 60.1094 142.009 60.1883 142.121 60.3988C143.166 62.3533 145.205 63.6331 147.441 63.7396C149.676 63.8448 151.828 62.7637 153.054 60.9183C153.187 60.7197 153.456 60.6645 153.655 60.7973C153.854 60.9288 153.91 61.1972 153.778 61.3958C152.445 63.4002 150.157 64.6116 147.741 64.6116ZM131.868 59.532C130.264 59.7648 128.564 58.9401 127.268 57.271C125.829 55.4152 125.378 53.1424 126.148 51.6153C126.604 50.7065 127.218 50.1501 127.971 49.9633C129.439 49.599 131.029 50.7051 131.044 50.7157C131.09 50.7486 131.142 50.7696 131.195 50.7828L131.042 52.9148C130.878 55.2231 131.185 57.4578 131.868 59.532ZM128.942 137.074C129.165 137.077 129.364 136.924 129.394 136.704C129.426 136.481 129.282 136.272 129.062 136.221C126.827 135.707 123.076 134.475 122.525 133.364C122.457 133.23 122.452 133.119 122.507 132.998C123.25 131.373 131.63 132.635 137.346 134.052C137.443 134.077 137.55 134.064 137.641 134.02L139.422 133.146C141.349 134.549 145.166 139.873 146.604 144.034C146.579 144.038 146.552 144.035 146.527 144.044C146.432 144.077 136.875 147.297 131.962 146.629C128.569 146.164 124.383 144.606 122.086 142.169C125.176 143.801 129.453 144.892 131.71 145.046C131.721 145.048 131.73 145.048 131.74 145.048C131.966 145.048 132.155 144.874 132.173 144.645C132.188 144.406 132.008 144.201 131.769 144.184C128.443 143.959 121.715 141.844 119.82 139.422C120.538 139.783 121.406 140.14 122.475 140.472C126.04 141.579 129.596 141.734 131.301 141.734C131.909 141.734 132.282 141.713 132.335 141.711C132.575 141.698 132.756 141.494 132.743 141.254C132.73 141.018 132.543 140.837 132.286 140.848C132.237 140.849 127.413 141.101 122.732 139.647C119.651 138.69 118.324 137.543 117.778 136.88C123.636 136.798 128.888 137.072 128.942 137.074ZM90.6124 115.155C91.5851 114.872 92.1044 114.967 92.2046 115.095C93.0257 116.142 91.0737 118.482 90.2657 119.283C87.2461 120.774 86.3828 121.955 86.3472 122.005C86.2088 122.2 86.255 122.47 86.45 122.608C86.5265 122.662 86.6135 122.688 86.7005 122.688C86.8362 122.688 86.9693 122.625 87.0537 122.505C87.0603 122.497 87.8722 121.424 90.6862 120.04C90.8417 119.995 91.7683 119.744 92.6975 119.744C93.4949 119.744 94.2857 119.931 94.5783 120.595C94.9869 121.521 93.6399 122.535 93.3697 122.727C90.2829 123.535 88.2452 124.307 86.5726 125.3C86.367 125.422 86.2998 125.688 86.4224 125.893C86.5041 126.029 86.6478 126.104 86.7941 126.104C86.8705 126.104 86.9469 126.085 87.0168 126.043C88.6077 125.097 90.5689 124.356 93.5463 123.574C93.8139 123.666 94.5863 124.003 94.6812 124.873C94.7721 125.721 93.6663 126.567 93.1681 126.864C90.5412 127.307 87.3252 128.876 87.1881 128.943C86.9733 129.049 86.885 129.308 86.9918 129.522C87.0669 129.675 87.2198 129.763 87.3793 129.763C87.4438 129.763 87.5084 129.75 87.5704 129.719C87.6033 129.702 90.7047 128.191 93.1865 127.74C93.4093 127.982 93.8323 128.574 93.7203 129.497C93.574 130.701 90.8668 131.792 89.1955 132.196C89.1889 132.197 89.1691 132.205 89.1494 132.212C89.1191 132.22 89.0887 132.225 89.0611 132.239C88.7882 132.32 88.1463 132.458 87.5124 132.17C86.939 131.911 86.4975 131.36 86.2009 130.534C85.3983 128.3 84.4203 123.71 84.6522 121.308C84.9554 118.173 88.3203 115.822 90.6124 115.155ZM87.4557 113.42C87.9249 113.177 88.3757 112.972 88.8172 112.785V114.95C87.6336 115.542 86.3591 116.443 85.3851 117.614C85.3389 117.611 85.2928 117.61 85.2454 117.623C84.7366 117.762 84.3241 117.614 84.1764 117.233C83.8997 116.526 84.5442 114.926 87.4557 113.42ZM95.5418 124.919C95.638 124.691 96.1837 123.565 98.1265 121.641V125.436C98.1265 126.638 98.7038 127.698 99.5856 128.388L99.2218 128.534C97.8154 129.099 95.9306 129.854 94.2225 130.482C94.4096 130.21 94.5428 129.917 94.581 129.6C94.7102 128.541 94.3187 127.785 93.9905 127.354C94.5955 126.915 95.5748 126.021 95.5418 124.919ZM95.182 123.787C94.954 123.442 94.6627 123.186 94.3885 123.021C95.0278 122.445 95.8819 121.402 95.3731 120.247C94.7497 118.833 92.9901 118.778 91.7406 118.941C92.6962 117.767 93.8996 115.852 92.886 114.562C92.7489 114.386 92.5328 114.281 92.2837 114.206V111.839C94.4004 111.637 96.0427 112.245 98.0975 113.127C98.1067 113.131 98.1173 113.13 98.1265 113.134V120.437C96.5145 121.946 95.642 123.073 95.182 123.787Z" fill="#F4D1C5"/>
<path d="M150.939 91.9095V91.7911C150.939 91.1869 150.447 90.6959 149.844 90.6959H142.343C141.74 90.6959 141.248 91.1869 141.248 91.7911V91.9095C141.248 92.5137 141.74 93.0061 142.343 93.0061H142.758C142.998 93.0061 143.191 93.1996 143.191 93.4378V97.3408H148.998V93.4378C148.998 93.1996 149.191 93.0061 149.429 93.0061H149.844C150.447 93.0061 150.939 92.5137 150.939 91.9095ZM134.294 97.3421H128.489V93.4207C128.489 93.1811 128.296 92.9876 128.056 92.9876H127.641C127.038 92.9876 126.546 92.4966 126.546 91.8924V91.774C126.546 91.1698 127.038 90.6788 127.641 90.6788H135.142C135.745 90.6788 136.235 91.1698 136.235 91.774V91.8924C136.235 92.4966 135.745 92.9876 135.142 92.9876H134.727C134.487 92.9876 134.294 93.1811 134.294 93.4207V97.3421ZM135.159 97.1131V93.8538C135.325 93.8525 135.484 93.8235 135.637 93.7827C135.475 94.8634 135.314 95.9731 135.159 97.1131ZM156.547 88.7621C156.529 88.7714 156.518 88.7872 156.502 88.799C156.477 88.8174 156.452 88.8345 156.433 88.8569C156.414 88.878 156.401 88.9017 156.387 88.9254C156.374 88.9491 156.358 88.9714 156.349 88.9978C156.338 89.0267 156.335 89.057 156.331 89.0873C156.329 89.1057 156.32 89.1241 156.32 89.1439V97.3421H152.502C153.173 85.9544 154.455 78.255 156.313 74.4258C156.451 74.4587 156.615 74.4955 156.822 74.5403C157.702 74.7338 159.131 75.0497 160.87 75.5973C161.24 80.1585 161.54 85.2356 161.375 85.8004C161.144 86.1387 158.684 87.613 156.547 88.7621ZM148.998 101.138H143.191V125.494C143.191 127.097 144.493 128.4 146.094 128.4C147.695 128.4 148.998 127.097 148.998 125.494V101.138ZM148.133 125.288C148.133 126.414 147.218 127.329 146.094 127.329C144.969 127.329 144.054 126.414 144.054 125.288V103.961C144.054 103.721 144.248 103.528 144.487 103.528H147.7C147.94 103.528 148.133 103.721 148.133 103.961V125.288ZM131.614 89.8126H127.641C126.562 89.8126 125.683 90.6919 125.683 91.7726V91.8924C125.683 92.9679 126.553 93.8446 127.625 93.8525V97.3408H120.475V93.8709C121.548 93.8617 122.417 92.985 122.417 91.9095V91.7911C122.417 90.7643 121.623 89.9284 120.617 89.8468C122.849 86.9509 125.197 84.4498 127.971 82.0593C130.053 80.2638 131.96 78.8948 133.678 77.8338C132.231 80.0229 129.705 83.8522 129.352 84.4393C128.878 85.2317 130.234 87.6841 131.614 89.8126ZM135.143 89.8126H132.649C131.312 87.792 129.989 85.3515 130.107 84.8565C130.55 84.1233 134.92 77.5232 135.363 76.8558C137.505 75.6895 139.29 75.0168 140.678 74.564C139.031 77.1954 137.568 82.316 136.224 90.1404C135.913 89.9337 135.543 89.8126 135.143 89.8126ZM165.94 119.762C164.581 112.15 162.552 100.597 162.531 99.9656C162.522 99.73 162.306 99.5641 162.091 99.5431C161.856 99.547 161.666 99.7339 161.666 99.9696C161.666 100.688 164.489 116.552 165.032 119.594L159.776 122.186V89.1426C159.776 88.903 159.583 88.7095 159.344 88.7095H158.432C160 87.8249 161.904 86.6705 162.16 86.1584C162.475 85.5279 162.066 79.6885 161.761 75.8909C162.812 76.2502 163.951 76.6939 165.143 77.2401C165.215 77.3323 165.32 77.3955 165.446 77.406C165.461 77.406 165.473 77.4007 165.487 77.4007C168.695 78.9145 172.223 81.1773 175.279 84.6235C183.385 93.7616 187.497 123.942 185.119 130.602C184.454 132.468 180.433 135.957 165.057 141.987C157.789 144.837 150.633 147.198 147.832 148.099C147.98 147.645 148.038 147.113 148 146.501C147.736 142.261 142.9 135.028 140.276 132.768L165.707 120.226C165.879 120.141 165.975 119.952 165.94 119.762ZM156.32 123.892L155.162 124.462L156.32 118.13V123.892ZM156.32 113.371C156.316 113.384 156.308 113.395 156.305 113.409L154.196 124.939L151.978 126.032C151.938 123.516 151.802 112.595 152.307 101.138H156.32V113.371ZM146.833 144.89C146.997 145.485 147.106 146.047 147.138 146.557C147.193 147.449 147.005 148.093 146.599 148.493C146.598 148.493 146.596 148.493 146.596 148.493C146.499 148.523 146.427 148.588 146.374 148.665C145.517 149.035 143.569 147.661 142.122 146.288C144.667 145.635 146.607 144.98 146.782 144.919C146.801 144.912 146.814 144.899 146.833 144.89ZM130.966 147.398C129.253 180.216 128.853 212.794 128.807 216.94C125.123 216.751 116.789 214.329 115.042 213.811C115.68 202.033 118.837 168.961 121.431 142.733C123.672 145.159 127.579 146.771 130.966 147.398ZM102.005 129.248C104.083 129.248 105.772 127.556 105.772 125.476V107.238C108.29 105.227 110.216 103.511 111.492 102.138C111.801 101.806 112.097 101.473 112.385 101.138H112.94V125.494C112.94 125.824 112.996 126.139 113.076 126.444C109.536 128.538 105.306 130.217 100.487 131.446C100.794 130.638 100.865 129.657 100.875 129.054C101.234 129.169 101.608 129.248 102.005 129.248ZM131.392 128.383C132.992 128.383 134.294 127.078 134.294 125.476V101.138H128.489V125.476C128.489 127.078 129.791 128.383 131.392 128.383ZM131.392 127.311C130.267 127.311 129.354 126.395 129.354 125.27V103.942C129.354 103.703 129.547 103.509 129.785 103.509H132.998C133.238 103.509 133.431 103.703 133.431 103.942V125.27C133.431 126.395 132.516 127.311 131.392 127.311ZM152.449 147.491C159.763 145.022 172.465 140.443 179.988 136.08C180.063 136.622 180.236 137.52 180.527 139.026L182.218 147.773C183.619 155.01 185.492 164.66 187.365 174.31C190.815 192.082 194.271 209.855 194.795 212.554C193.916 212.893 191.256 213.856 186.996 214.897C186.937 214.883 186.876 214.879 186.813 214.892C186.741 214.907 186.682 214.942 186.628 214.987C179.813 216.623 169.074 218.413 155.032 218.259L154.706 209.321C154.712 209.29 154.723 209.258 154.721 209.225C154.72 209.194 154.707 209.169 154.699 209.14L152.449 147.491ZM146.191 173.785C148.135 174.638 151.612 188.232 153.345 196.599C153.351 196.629 153.368 196.653 153.379 196.679L153.822 208.826L146.314 209.115C145.764 191.097 145.509 175.404 146.117 173.765C146.136 173.765 146.159 173.771 146.191 173.785ZM111.863 91.9095V91.7911C111.863 91.1869 112.353 90.6959 112.956 90.6959H120.458C121.062 90.6959 121.552 91.1869 121.552 91.7911V91.9095C121.552 92.5137 121.062 93.0061 120.458 93.0061H120.043C119.804 93.0061 119.611 93.1996 119.611 93.4378V97.3408H113.804V93.4378C113.804 93.1996 113.611 93.0061 113.372 93.0061H112.956C112.353 93.0061 111.863 92.5137 111.863 91.9095ZM119.611 101.138H113.804V125.494C113.804 127.097 115.106 128.4 116.707 128.4C118.308 128.4 119.611 127.097 119.611 125.494V101.138ZM118.746 125.288C118.746 126.414 117.831 127.329 116.707 127.329C115.582 127.329 114.669 126.414 114.669 125.288V103.961C114.669 103.721 114.862 103.528 115.101 103.528H118.315C118.553 103.528 118.746 103.721 118.746 103.961V125.288ZM100.004 129.24C99.955 130.365 99.6842 131.871 98.9311 131.946C97.973 132.041 97.442 130.893 97.2435 130.343C98.1123 130.001 98.9456 129.665 99.6527 129.381L100.004 129.24ZM104.909 125.476V101.138H99.102V125.476C99.102 127.078 100.404 128.383 102.005 128.383C103.606 128.383 104.909 127.078 104.909 125.476ZM104.045 125.27C104.045 126.395 103.13 127.311 102.005 127.311C100.88 127.311 99.9668 126.395 99.9668 125.27V103.942C99.9668 103.703 100.16 103.509 100.399 103.509H103.613C103.852 103.509 104.045 103.703 104.045 103.942V125.27ZM123.786 115.342C123.563 115.297 123.35 115.431 123.288 115.647C123.283 115.668 122.677 117.678 120.475 120.327V101.138H127.625V125.476C127.625 126.713 128.23 127.801 129.15 128.488L129.611 131.72C126.722 131.342 123.874 131.241 122.501 131.973C123.471 122.283 124.133 115.811 124.133 115.811C124.156 115.588 124.006 115.385 123.786 115.342ZM98.2543 90.6774H105.756C106.36 90.6774 106.85 91.1684 106.85 91.7726V91.8924C106.85 92.4966 106.36 92.9876 105.756 92.9876H105.34C105.102 92.9876 104.909 93.1811 104.909 93.4207V97.3408H99.102V93.4207C99.102 93.1811 98.9088 92.9876 98.6709 92.9876H98.2543C97.651 92.9876 97.1607 92.4966 97.1607 91.8924V91.7726C97.1607 91.1684 97.651 90.6774 98.2543 90.6774ZM130.476 131.665L130.096 129.003C130.502 129.154 130.935 129.248 131.392 129.248C131.622 129.248 131.846 129.219 132.065 129.179C131.998 130.138 131.934 131.099 131.869 132.063C131.408 131.985 130.939 131.908 130.466 131.838C130.48 131.783 130.484 131.724 130.476 131.665Z" fill="white"/>
<path d="M158.842 89.7041H157.111V123.621L158.842 122.768V89.7041ZM120.806 251.641C120.84 251.645 120.87 251.654 120.908 251.65C121.059 251.641 124.835 251.495 126.48 255.065C126.554 255.223 126.71 255.315 126.873 255.315C126.934 255.315 126.996 255.303 127.055 255.276C127.271 255.176 127.365 254.919 127.267 254.701C126.07 252.107 123.85 251.226 122.364 250.93C122.89 250.702 123.416 250.483 123.934 250.276C123.945 250.277 123.953 250.281 123.962 250.281C123.97 250.281 123.983 250.28 124.009 250.281C124.435 250.281 127.94 250.388 129.521 253.817C129.593 253.975 129.75 254.069 129.913 254.069C129.973 254.069 130.035 254.056 130.094 254.028C130.311 253.928 130.406 253.671 130.306 253.454C129.143 250.932 127.084 249.988 125.623 249.633C126.029 249.484 126.425 249.343 126.808 249.212C127.474 249.209 131.146 249.387 132.674 252.704C132.748 252.862 132.905 252.954 133.068 252.954C133.128 252.954 133.19 252.943 133.249 252.915C133.465 252.815 133.559 252.558 133.459 252.341C132.343 249.916 130.256 248.967 128.687 248.591C130.08 248.152 131.067 247.886 131.319 247.82C131.572 247.834 133.315 247.968 134.83 249.262C136.034 250.288 136.374 252.226 136.378 252.246C136.397 252.359 136.461 252.46 136.554 252.526C136.628 252.578 136.716 252.607 136.804 252.607C136.829 252.607 136.852 252.604 136.877 252.6L146.876 250.885L147.123 258.298C145.853 258.705 140.736 260.256 134.362 261.022C122.713 262.423 115.073 261.954 113.398 259.742C112.987 259.199 112.952 258.54 113.289 257.726C114.275 255.346 117.413 253.271 120.806 251.641ZM131.305 126.604C130.657 126.604 130.13 126.077 130.13 125.427V104.515H132.481V125.427C132.481 126.077 131.954 126.604 131.305 126.604ZM101.901 126.604C101.253 126.604 100.727 126.077 100.727 125.427V104.515H103.077V125.427C103.077 126.077 102.55 126.604 101.901 126.604ZM91.437 134.082C91.437 134.32 91.6303 134.514 91.8697 134.514H122.083C122.097 134.514 122.11 134.507 122.125 134.506C122.845 135.213 124.168 135.826 125.461 136.295C123.231 136.232 120.159 136.18 116.97 136.244C116.966 136.244 116.963 136.246 116.96 136.246H91.7671C90.6322 136.246 89.7076 135.321 89.7076 134.184V133.17C90.0522 133.079 90.7071 132.888 91.437 132.592V134.082ZM91.437 89.7041V114.315C91.1214 114.34 90.7808 114.393 90.3928 114.506C90.1771 114.569 89.9457 114.652 89.7076 114.744V89.7041H91.437ZM168.946 253.165C168.967 253.167 168.987 253.174 169.009 253.172C169.17 253.169 172.933 253.037 174.579 256.609C174.652 256.767 174.809 256.859 174.972 256.859C175.032 256.859 175.094 256.847 175.152 256.82C175.369 256.72 175.464 256.463 175.364 256.245C174.173 253.665 171.975 252.769 170.491 252.462C171.117 252.189 171.741 251.935 172.353 251.695C172.37 251.698 172.386 251.706 172.403 251.706C172.549 251.708 175.966 251.779 177.618 255.361C177.69 255.519 177.847 255.612 178.011 255.612C178.071 255.612 178.132 255.6 178.191 255.572C178.408 255.472 178.503 255.215 178.403 254.998C177.24 252.476 175.302 251.487 173.943 251.096C174.272 250.977 174.594 250.862 174.906 250.756C175.574 250.75 179.243 250.931 180.773 254.248C180.845 254.405 181.001 254.498 181.166 254.498C181.226 254.498 181.287 254.487 181.346 254.459C181.563 254.359 181.658 254.101 181.558 253.885C180.44 251.459 178.346 250.511 176.777 250.138C178.174 249.696 179.164 249.43 179.415 249.364C179.671 249.378 181.412 249.512 182.927 250.804C184.133 251.832 184.472 253.77 184.475 253.79C184.494 253.904 184.56 254.007 184.656 254.073C184.728 254.124 184.814 254.151 184.902 254.151C184.93 254.151 184.957 254.148 184.985 254.141L193.766 252.4L195.168 259.858C193.814 260.289 188.749 261.81 182.457 262.565C170.809 263.965 163.17 263.498 161.495 261.285C161.084 260.743 161.049 260.084 161.387 259.27C162.377 256.879 165.537 254.798 168.946 253.165ZM92.4759 98.3425H156.238V100.41H92.4746V98.3425H92.4759Z" fill="#F4B47E"/>
<path d="M147.195 125.503V104.61H144.843V125.503C144.843 126.15 145.371 126.678 146.02 126.678C146.668 126.678 147.195 126.15 147.195 125.503ZM191.814 241.915L169.845 242.542C169.044 240.159 163.777 224.481 162.113 219.224C172.626 218.836 180.885 217.42 186.549 216.08L191.814 241.915ZM117.773 104.61V125.503C117.773 126.15 117.246 126.678 116.597 126.678C115.948 126.678 115.421 126.15 115.421 125.503V104.61H117.773ZM129.573 217.589C129.576 217.241 129.91 182.645 131.731 147.748C131.743 147.751 131.756 147.753 131.768 147.754C132.274 147.824 132.821 147.855 133.397 147.855C135.754 147.855 138.598 147.332 141.053 146.744C141.873 147.57 144.246 149.802 145.988 149.802C146.357 149.802 146.695 149.701 146.987 149.465C147.588 149.276 149.233 148.756 151.527 147.99L153.143 192.187C152.695 190.255 152.126 187.895 151.494 185.517C148.769 175.258 147.319 173.574 146.465 173.199C146.143 173.06 145.821 173.077 145.533 173.251C145.071 173.527 144.297 173.992 145.363 208.845C145.371 209.082 145.378 209.321 145.385 209.557C145.347 209.626 145.32 209.701 145.322 209.785C145.326 209.867 145.358 209.938 145.399 210.001C145.871 225.146 146.488 240.069 146.605 242.864L130.93 242.388L130.368 242.371L125.933 242.237C125.628 240.052 124.024 228.322 123.137 217.08C125.468 217.608 127.724 218.016 129.139 218.016C129.377 218.016 129.571 217.825 129.573 217.589Z" fill="#ADE1DA"/>
</svg>
