<svg width="38" height="37" viewBox="0 0 38 37" fill="none" xmlns="http://www.w3.org/2000/svg">
<g id="Group 43">
<path id="Vector" d="M18.5187 0C8.29137 0 0 8.28303 0 18.5C5.5937e-05 28.717 8.29137 37 18.5187 37C28.7459 37 37.0355 28.717 37.0355 18.5C37.0355 8.28303 28.7459 0 18.5187 0ZM19.1252 0.799206C28.699 0.799206 36.1215 8.42647 36.1215 17.9907C36.1215 27.5549 28.173 35.5227 18.5992 35.5227C9.02532 35.5227 1.52076 27.4777 1.52076 17.9135C1.52076 8.34925 9.55135 0.799206 19.1252 0.799206Z" fill="#02A1E3"/>
<path id="Vector_2" d="M18.7706 1.70776C15.4188 1.70776 14.0138 2.21103 11.3397 3.44884C11.3553 3.44297 12.1443 3.32892 12.9327 3.41056C13.721 3.4922 14.323 3.76445 14.4931 3.77535C16.4442 3.3544 16.6137 3.1886 18.5765 3.1886C23.7538 3.18866 28.4195 5.83008 31.1763 9.77029C31.1763 9.77029 31.4326 9.62209 31.6803 9.56582C31.928 9.50955 32.167 9.5452 32.167 9.5452C32.167 9.5452 32.5824 9.62153 32.8814 9.78258C33.1804 9.94363 33.3631 10.1894 33.3631 10.1894C30.451 5.51503 24.6874 1.70776 18.7706 1.70776ZM7.06052 6.56419C5.20833 8.54236 2.27265 12.6721 2.27271 18.1908C2.27265 18.8592 2.35063 19.6188 2.42799 20.2664C2.42799 20.2664 2.58545 19.7906 2.82603 19.4975C3.06997 19.2003 3.15181 19.1067 3.32673 18.9732C3.32141 18.5504 3.32673 18.8896 3.32673 18.4231C3.32673 14.4572 4.31273 11.7899 6.59557 8.91637C6.62303 8.77097 6.51525 8.49263 6.59188 7.89812C6.68764 7.15524 7.04603 6.58402 7.06052 6.56419ZM34.5188 13.0483C34.5188 13.0483 34.54 13.5556 34.2999 14.2036C34.1236 14.6792 34.1379 14.6261 33.9033 14.9813C33.7557 15.2049 33.524 15.3898 33.524 15.3898C33.7232 16.3704 33.8281 17.3837 33.8281 18.4231C33.8281 19.1979 33.8008 19.8985 33.6886 20.6246C33.6879 20.6291 34.0151 20.9053 34.2961 21.2495C34.5666 21.5808 34.8355 22.1126 34.8367 22.106C34.8746 21.9095 34.9093 21.726 34.9412 21.5533C35.2106 20.0912 35.2703 19.4094 35.2703 18.1908C35.2703 16.3458 35.0086 14.5994 34.5188 13.0483Z" fill="#02A1E3"/>
<path id="Vector_3" d="M33.2881 14.4494C33.4864 14.2272 33.6089 13.9516 33.7146 13.5587C33.8622 13.0108 33.7971 12.9347 33.7286 12.2193C33.6601 11.504 33.7157 11.8354 33.4069 11.0569C33.0979 10.2783 32.4028 10.2573 32.04 10.1256C31.9493 10.0927 31.8355 10.0812 31.7149 10.0819C31.5984 10.0826 31.4758 10.0951 31.3635 10.1116C31.1273 10.1464 30.9353 10.1989 30.9353 10.1989C30.9353 10.1989 29.9629 10.3045 29.8585 10.1273C29.754 9.95013 29.4662 9.6025 28.9495 9.04112C28.4328 8.4798 28.3054 8.46633 28.1262 8.42297C27.947 8.37961 27.7728 8.22325 27.4952 8.06846C27.2175 7.91373 27.5074 8.03493 26.8571 7.79258C26.2069 7.55017 25.9149 7.60812 25.5461 7.72446C25.1773 7.84081 25.0814 8.03449 24.8679 8.02482C24.6544 8.0151 24.441 7.91803 24.111 8.13133C23.781 8.34463 23.7225 8.43253 23.3925 8.52948C23.0626 8.62643 22.8396 8.76289 22.6164 9.01497C22.3932 9.26705 22.4116 9.45956 22.2563 9.90554C22.101 10.3515 22.0115 10.2106 21.8759 10.2115C21.7404 10.2124 21.519 10.1881 21.4131 10.289C21.2463 10.4479 21.2596 10.5372 21.2005 10.9079C21.1413 11.2786 21.1861 11.5496 21.1778 11.8439C21.1694 12.1383 21.1728 12.4009 21.2756 12.6315C21.3786 12.8621 21.4232 12.9622 21.4313 13.2235C21.4394 13.4848 21.3833 13.5638 21.4015 13.8015C21.4197 14.0392 21.4522 14.2083 21.5589 14.4249C21.6655 14.6415 21.732 14.7601 21.8682 14.851C22.0046 14.9418 22.0841 15.0177 22.1445 15.202C22.2048 15.3863 22.1888 15.5015 22.1654 15.7189C22.1421 15.9363 22.0412 16.126 21.9288 16.3257C21.8132 16.5312 21.8571 16.4503 21.7336 16.626C21.6206 16.7867 21.5493 16.9477 21.6792 17.0843C21.8091 17.2209 22.0731 17.2661 22.196 17.3179C22.3318 17.3752 22.3675 17.6351 22.4381 17.7515C22.5087 17.868 22.6424 18.0695 22.7405 18.3051C22.8386 18.5407 22.8188 18.5489 23.0185 18.719C23.2182 18.889 23.2515 18.9929 23.3785 19.1713C23.5056 19.3496 23.485 19.5544 23.7054 19.7056C23.9258 19.8568 24.1822 19.7274 24.513 19.6148C24.8438 19.5023 24.9796 19.4059 25.2734 19.2586C25.5672 19.1112 25.6666 19.0743 25.8957 19.035C26.1249 18.9958 26.2931 19.1171 26.518 19.3337C26.7429 19.5502 26.7467 19.6937 26.983 20.1596C27.2193 20.6256 27.1896 20.76 27.1298 21.0555C27.07 21.351 26.7438 21.3166 26.4288 21.2808C26.1139 21.2449 26.0062 21.2559 25.6457 21.3995C25.2853 21.5431 25.1572 21.8033 24.8399 22.0893C24.5226 22.3753 24.3207 22.7249 24.3207 22.7249C24.3207 22.7249 23.9747 23.1055 23.7369 23.5457C23.4991 23.9858 23.2559 24.169 23.0954 24.452C22.9348 24.7349 22.9161 24.7482 22.7929 25.0981C22.6698 25.448 22.5951 25.6519 22.6094 25.9136C22.6237 26.1753 22.5831 26.3254 22.5098 26.696C22.4364 27.0665 22.2785 27.176 22.1759 27.3159C22.0732 27.4557 21.9845 27.4701 21.8718 27.4503C21.7589 27.4306 21.7784 27.3092 21.7249 27.1151C21.6715 26.9209 21.7263 26.8985 21.6148 26.7361C21.5032 26.5737 21.2603 26.2976 21.2407 26.1476C21.2212 25.9976 21.2495 25.9753 21.0309 25.8508C20.8124 25.7262 20.8791 25.6771 20.8072 25.5102C20.7353 25.3434 20.8085 25.2807 20.7478 25.1627C20.687 25.0447 20.6022 25.0789 20.4524 24.9724C20.3025 24.8659 20.3884 24.8126 20.4189 24.5858C20.4492 24.3592 20.5885 24.3516 20.6883 24.4153C20.7881 24.4791 20.9533 24.5511 21.0344 24.5061C21.1156 24.4611 21.2685 24.0951 21.4889 23.6888C21.7094 23.2826 21.7184 23.1134 21.9015 22.7791C22.0845 22.4447 22.1983 22.1507 22.2773 21.8797C22.3563 21.6087 22.2569 21.2552 22.2266 21.0188C22.1962 20.7824 21.897 20.318 22.0151 19.9274C22.1331 19.5369 21.9123 19.1119 21.8102 18.8784C21.708 18.6449 21.4152 18.2545 21.1915 18.1619C20.9679 18.0693 20.75 17.9489 20.4891 17.9384C20.2281 17.9279 19.873 17.6444 19.4529 17.5716C19.0329 17.4989 18.9524 17.5818 18.3217 17.5132C17.691 17.4446 16.9922 17.7716 16.8322 17.8755C16.6721 17.9794 16.3329 18.1281 16.1679 18.1602C16.0029 18.1922 15.816 18.3418 15.6313 18.478C15.4466 18.6142 15.1847 18.9363 15.0352 19.0822C14.8857 19.2282 14.7038 19.7415 14.6499 19.9186C14.596 20.0957 14.5727 20.1584 14.6369 20.2754C14.7012 20.3923 14.8575 20.5164 14.8657 20.6119C14.8738 20.7075 14.8294 20.8296 14.8097 20.9629C14.79 21.0963 14.8342 21.5099 14.8744 21.6388C14.9146 21.7676 15.0498 21.9654 15.1418 22.1347C15.2339 22.304 15.2401 22.2894 15.2327 22.4403C15.2253 22.5912 14.9823 22.9357 14.9823 22.9357C14.9823 22.9357 14.7895 23.1847 14.8353 23.2571C14.8986 23.3571 15.0919 23.4443 15.1364 23.4995C15.2578 23.6503 15.2133 23.7089 15.252 23.8478C15.2906 23.9867 15.256 24.0625 15.2642 24.1988C15.2723 24.3351 15.2553 24.3835 15.3201 24.4921C15.3849 24.6008 15.4291 24.6898 15.4512 24.8309C15.4734 24.972 15.4984 25.0988 15.5107 25.2099C15.523 25.321 15.6664 25.5708 15.7868 25.6185C15.9073 25.6662 16.264 25.6988 16.4966 25.6604C16.729 25.622 16.9324 25.5943 17.028 25.615C17.1234 25.6357 17.0957 26.0878 17.0874 26.1791C17.0791 26.2703 17.0952 26.2963 16.8916 26.5493C16.688 26.8022 16.6535 26.9091 16.507 27.1709C16.3606 27.4327 16.2815 27.4583 16.2012 27.7018C16.1208 27.9453 16.2089 28.0134 16.1557 28.2659C16.1024 28.5183 15.9279 28.4102 15.7659 28.5068C15.6039 28.6035 15.387 28.6838 15.1104 28.6727C14.8337 28.6616 14.6067 28.2567 14.5038 28.0528C14.4009 27.8489 14.3936 27.2958 14.3989 27.0976C14.4042 26.8994 14.2797 25.9544 14.1839 25.7198C14.0881 25.4851 14.0726 25.5242 14.0686 25.1802C14.0644 24.8362 13.997 24.6836 13.9374 24.4939C13.8778 24.3042 13.5676 23.3138 13.5442 23.0322C13.5207 22.7508 13.451 22.6412 13.3414 22.477C13.2317 22.3127 13.1603 21.7961 13.1211 21.6475C13.0819 21.4989 12.9022 21.3662 12.8082 21.1551C12.7143 20.9439 12.6829 20.233 12.6124 20.0531C12.542 19.8733 12.4576 19.8281 12.4289 19.7318C12.4002 19.6355 12.2941 19.3989 12.2943 19.1678C12.2944 18.9366 12.4431 18.8622 12.539 18.7067C12.6349 18.5513 12.6882 18.5332 12.81 18.3645C12.9317 18.1958 13.061 18.1076 13.1823 17.9471C13.3036 17.7867 13.4201 17.7134 13.5127 17.6258C13.6052 17.5382 13.6352 17.4701 13.6735 17.2835C13.7118 17.0971 13.7262 16.9272 13.8099 16.6986C13.8935 16.4698 14.0032 16.3617 14.1053 16.2201C14.2073 16.0784 14.5974 16.0894 14.7066 16.0699C14.8157 16.0504 15.1369 16.1106 15.2782 16.1136C15.4194 16.1165 15.6111 16.183 16.0543 16.0716C16.4975 15.9603 16.4488 15.945 16.7046 15.801C16.9603 15.6569 16.9317 15.439 16.9877 15.2771C17.0438 15.1152 16.9681 14.8422 16.9301 14.6275C16.892 14.4127 17.0438 14.491 17.1556 14.3044C17.2673 14.1178 17.0572 14.0257 17.1398 14.0198C17.2225 14.0138 17.3523 13.9374 17.381 13.894C17.4098 13.8507 17.3669 13.6844 17.3409 13.5535C17.3147 13.4227 17.3175 13.2166 17.2937 13.0488C17.2698 12.881 17.4531 12.8567 17.5104 12.8079C17.5677 12.759 17.8458 12.7522 17.9999 12.7101C18.1539 12.6679 18.1917 12.5027 18.2166 12.4079C18.2415 12.3132 18.1002 12.1505 17.9632 11.9504C17.8261 11.7504 17.7224 11.4373 17.5821 11.2519C17.4418 11.0666 17.3083 10.6789 17.2482 10.5499C17.1881 10.4209 17.4227 10.2872 17.4947 10.1832C17.5667 10.0793 17.5637 9.79954 17.5664 9.57551C17.569 9.35148 17.386 7.97587 17.3496 7.79778C17.3131 7.61969 17.601 7.48786 17.8845 7.29664C18.168 7.10536 18.191 7.09044 18.177 6.99276C18.1591 6.86831 18.0893 6.80819 17.8495 6.61031C17.6098 6.4125 17.5681 6.28738 17.2867 6.02709C17.0052 5.76679 16.4639 5.47532 16.0054 5.20458C15.5468 4.93384 15.1225 4.74893 14.8954 4.64231C14.6683 4.53569 13.7894 4.30814 13.4183 4.23365C13.2535 4.20057 13.1241 4.19174 12.9882 4.18302C12.8181 4.17207 12.6388 4.16341 12.3782 4.1324C12.2611 4.11843 12.1359 4.11379 12.0094 4.11491C11.6298 4.11826 11.2444 4.16788 11.0811 4.1324C10.8635 4.08506 9.95669 4.25746 9.71594 4.35067C9.69983 4.35687 9.68786 4.36402 9.67225 4.36989C9.4711 4.4451 9.30519 4.50395 9.13033 4.74356C9.11584 4.7634 9.10136 4.77514 9.08665 4.79771C8.88091 5.11377 8.74151 5.05024 8.27729 5.64816C7.81307 6.24603 7.72576 6.73236 7.42778 7.597C7.36368 7.78286 7.32939 7.93524 7.30192 8.0807C7.20152 8.61168 7.2989 8.93579 7.33861 9.4253C7.38924 10.049 7.4044 10.0712 7.46621 10.5936C7.52802 11.116 7.71815 12.0013 7.87701 12.6263C8.03587 13.2512 8.20016 13.6224 8.41367 14.2468C8.62718 14.8712 8.4093 14.9651 8.13745 15.4552C7.86565 15.9453 7.76821 15.9106 7.46274 16.241C7.15721 16.5714 6.69853 16.5691 6.16221 16.9256C5.62583 17.282 5.12799 17.781 4.6047 18.2527C4.08141 18.7245 3.42476 19.6637 3.42476 19.6637L3.40731 19.6899C3.39131 19.7097 3.37895 19.731 3.36362 19.751C3.24397 19.9076 3.14116 20.0706 3.06296 20.24L3.02448 20.3011L3.02621 20.3133C2.92866 20.5452 2.57939 21.0641 2.65389 21.6231C2.72851 22.183 2.91909 22.7173 3.09188 23.2474C5.2369 29.8299 11.4292 34.5874 18.734 34.5874C21.9782 34.5874 24.9744 33.6821 27.5022 32.1007C27.5032 32.1 27.5046 32.0996 27.5056 32.0989C27.5074 32.0978 27.5091 32.0965 27.5109 32.0954C30.5276 30.2054 32.8375 27.4436 34.1397 24.0314C34.2396 23.7696 34.2746 23.4871 34.3144 23.2067C34.3516 22.9459 34.2399 22.6867 34.1674 22.5171C34.0094 22.1477 33.6342 21.7505 33.6342 21.7505C33.6342 21.7505 33.537 21.6219 33.4699 21.5322C33.3104 21.3191 33.0657 21.0029 32.8616 20.8302C32.5717 20.585 32.0805 20.1086 31.5856 19.7405C31.0906 19.3725 30.8889 19.0438 30.4983 18.3942C30.1077 17.7445 30.25 17.6492 30.1731 17.198C30.0963 16.7468 30.3995 16.8513 30.6276 16.5414C30.8558 16.2314 30.9685 16.2353 31.1223 16.1188C31.2761 16.0023 31.4611 15.8544 31.5349 15.6979C31.6085 15.5415 31.666 15.3097 32.0225 15.2055C32.3791 15.1013 32.6378 14.9534 33.0154 14.6921C33.1223 14.6181 33.2099 14.537 33.2881 14.4494Z" fill="#01439D"/>
</g>
</svg>
