<svg width="155" height="237" viewBox="0 0 155 237" fill="none" xmlns="http://www.w3.org/2000/svg">
<g id="Layer-5">
<path id="Vector" d="M52.9166 77.9769C52.9166 77.9769 75.1524 95.2785 102.602 78.1926C102.602 78.1926 127.189 80.2871 110.977 104.549C110.977 104.549 77.0518 123.239 44.8745 104.028C44.8745 104.028 28.7242 84.2553 52.9166 77.9769Z" fill="#FF8919" stroke="#034599" stroke-width="4.09275" stroke-miterlimit="10" stroke-linejoin="round"/>
<path id="Vector_2" d="M45.2041 104.683C45.2041 104.683 69.3965 122.302 110.487 105.992C110.487 105.992 134.997 109.026 118.791 133.287C118.791 133.287 78.4549 158.694 35.66 131.517C35.66 131.517 21.0116 110.961 45.2041 104.683Z" fill="#FFD41E" stroke="#034599" stroke-width="4.09275" stroke-miterlimit="10" stroke-linejoin="round"/>
<path id="Vector_3" d="M36.1461 131.827C36.1461 131.827 73.0957 158.614 118.546 132.841C118.546 132.841 142.308 139.281 126.406 159.989C126.406 159.989 84.036 190.239 27.3395 159.251C27.3395 159.251 11.9536 138.105 36.1461 131.827Z" fill="#7AEC47" stroke="#034599" stroke-width="4.09275" stroke-miterlimit="10" stroke-linejoin="round"/>
<path id="Vector_4" d="M27.1844 159.469C27.1844 159.469 74.8019 189.662 126.821 160.672C126.821 160.672 151.711 165.036 135.254 189.146C135.254 189.146 78.2091 221.866 18.9465 186.515C18.9465 186.515 2.99198 165.747 27.1844 159.469Z" fill="#8ABBFF" stroke="#034599" stroke-width="4.09275" stroke-miterlimit="10" stroke-linejoin="round"/>
<path id="Vector_5" d="M19.1611 187.997C19.1611 187.997 75.2228 222.095 135.961 188.978C135.961 188.978 139.269 189.037 142.203 190.237C150.501 193.633 158.385 205.433 144.131 217.764C144.131 217.764 83.0481 255.622 8.91689 216.38C8.91689 216.38 4.91365 213.211 3.64314 208.643C1.61639 201.359 3.75767 191.009 19.1611 187.997Z" fill="#02A1E3" stroke="#034599" stroke-width="4.09275" stroke-miterlimit="10" stroke-linejoin="round"/>
<path id="Vector_6" d="M77.625 3L53.6406 68.0834C53.6406 68.0834 47.0998 74.8257 63.0169 82.0608C68.9184 84.7427 80.7049 88.5379 94.6958 81.5091C102.159 77.7589 104.765 75.0881 102.726 69.5426L77.625 3Z" fill="#E04E32" stroke="#034599" stroke-width="4.09275" stroke-miterlimit="10" stroke-linejoin="round"/>
</g>
</svg>
